<?xml version="1.0" encoding="UTF-8" standalone="no"?>
<svg width="144px" height="144px" viewBox="0 0 144 144" version="1.1" xmlns="http://www.w3.org/2000/svg" xmlns:xlink="http://www.w3.org/1999/xlink" xmlns:sketch="http://www.bohemiancoding.com/sketch/ns">
    <title>Extinction Fireball Logo in Blue</title>
    <defs></defs>
    <g id="Page-1" stroke="none" stroke-width="1" fill="none" fill-rule="evenodd" sketch:type="MSPage">
        <g id="144---App-Icon" sketch:type="MSArtboardGroup" fill="#4990E2">
            <path d="M86.1205479,98 L0,0 L93,88.9305913 L86.1205479,98 L86.1205479,98 Z M106.581503,144 L16,39 L88.2100429,109.590361 L94.8441811,101.746988 C94.8441811,101.746988 105.347553,111.828253 106.488625,116.320988 C118.247124,107.505795 114.176825,80.3100361 85.6584512,70.626506 C81.3886178,66.4120843 54.770414,41.5243012 54.7841926,41.5301205 C58.165817,42.9851928 78.2458224,55.4870241 82.5965413,57.4698795 C129.660138,66.3339036 141.994022,109.999735 106.581503,144 L106.581503,144 Z M66.2378855,120.01596 C69.6706167,122.992577 78.5022026,124.062339 78.5022026,124.062339 L90,137.465967 C88.3593921,138.655097 70.2932863,138.791409 59.5947137,127.60292 C51.0252775,118.64095 49.8854626,105.853636 49.8854626,105.853636 L32,75 L60.3612335,108.635521 C60.3612335,108.635521 60.2391013,114.814341 66.2378855,120.01596 L66.2378855,120.01596 Z" id="Fireball" sketch:type="MSShapeGroup"></path>
        </g>
    </g>
</svg>
