<?xml version="1.0" encoding="UTF-8" standalone="no"?>
<svg width="155px" height="60px" viewBox="0 0 155 60" version="1.1" xmlns="http://www.w3.org/2000/svg" xmlns:xlink="http://www.w3.org/1999/xlink" xmlns:sketch="http://www.bohemiancoding.com/sketch/ns">
    <!-- Generator: Sketch 3.0.2 (7799) - http://www.bohemiancoding.com/sketch -->
    <title>kaboom-logo-v1</title>
    <description>Created with Sketch.</description>
    <defs></defs>
    <g id="Page-1" stroke="none" stroke-width="1" fill="none" fill-rule="evenodd" sketch:type="MSPage">
        <g id="kaboom-logo-v1" sketch:type="MSArtboardGroup">
            <path d="M95.979,40.3857686 L95.409,40.3857686 L94.099,46.6857686 L92.569,40.3857686 L91.899,40.3857686 L90.399,46.6857686 L89.099,40.3857686 L88.489,40.3857686 L89.999,47.2357686 L90.729,47.2357686 L92.229,41.0557686 L93.729,47.2357686 L94.479,47.2357686 L95.979,40.3857686 Z M97.929,42.0057686 L97.349,42.0057686 L97.349,47.2357686 L97.929,47.2357686 L97.929,42.0057686 Z M97.629,39.7057686 C97.369,39.7057686 97.199,39.8957686 97.199,40.1257686 C97.199,40.3557686 97.369,40.5457686 97.629,40.5457686 C97.899,40.5457686 98.069,40.3557686 98.069,40.1257686 C98.069,39.8957686 97.899,39.7057686 97.629,39.7057686 L97.629,39.7057686 Z M100.579,39.8057686 L99.999,39.8757686 L99.999,46.3357686 C99.999,47.0257686 100.339,47.3457686 100.899,47.3457686 C101.119,47.3457686 101.339,47.2857686 101.519,47.2057686 L101.359,46.7757686 C101.249,46.8257686 101.129,46.8457686 101.009,46.8457686 C100.699,46.8457686 100.579,46.6757686 100.579,46.3357686 L100.579,39.8057686 Z M104.369,41.8957686 C103.089,41.8957686 102.319,43.0357686 102.319,44.6457686 C102.319,46.3057686 103.059,47.3457686 104.279,47.3457686 C105.039,47.3457686 105.549,46.9557686 105.849,46.4357686 L105.919,47.2357686 L106.419,47.2357686 L106.419,39.8757686 L105.839,39.8057686 L105.839,42.6057686 C105.539,42.2357686 105.089,41.8957686 104.369,41.8957686 L104.369,41.8957686 Z M105.839,45.8957686 C105.489,46.5057686 105.069,46.8657686 104.369,46.8657686 C103.489,46.8657686 102.939,46.0957686 102.939,44.6357686 C102.929,43.1657686 103.549,42.3757686 104.469,42.3757686 C105.109,42.3757686 105.529,42.7257686 105.839,43.1657686 L105.839,45.8957686 Z M109.819,41.8957686 C108.829,41.8957686 108.079,42.4657686 108.079,43.2557686 C108.079,43.9957686 108.529,44.4057686 109.639,44.6957686 C110.729,44.9957686 111.019,45.2257686 111.019,45.8657686 C111.019,46.4957686 110.489,46.8557686 109.729,46.8557686 C109.089,46.8557686 108.629,46.6557686 108.199,46.2957686 L107.869,46.6757686 C108.319,47.0557686 108.889,47.3457686 109.739,47.3457686 C110.779,47.3457686 111.629,46.7957686 111.629,45.8257686 C111.629,44.9357686 111.089,44.5457686 109.949,44.2457686 C109.009,43.9957686 108.679,43.7757686 108.679,43.2557686 C108.679,42.7157686 109.149,42.3757686 109.839,42.3757686 C110.369,42.3757686 110.759,42.5357686 111.209,42.8657686 L111.489,42.4757686 C110.999,42.0957686 110.489,41.8957686 109.819,41.8957686 L109.819,41.8957686 Z M113.759,40.6857686 L113.179,40.7557686 L113.179,42.0057686 L112.299,42.0057686 L112.299,42.4757686 L113.179,42.4757686 L113.179,45.9657686 C113.179,46.8757686 113.669,47.3457686 114.459,47.3457686 C114.879,47.3457686 115.239,47.2257686 115.559,47.0157686 L115.329,46.6057686 C115.069,46.7657686 114.819,46.8457686 114.529,46.8457686 C113.999,46.8457686 113.759,46.5457686 113.759,45.9357686 L113.759,42.4757686 L115.039,42.4757686 L115.109,42.0057686 L113.759,42.0057686 L113.759,40.6857686 Z M118.129,41.8957686 C117.579,41.8957686 117.059,42.0157686 116.479,42.2457686 L116.629,42.6857686 C117.149,42.4957686 117.629,42.3857686 118.049,42.3857686 C118.919,42.3857686 119.259,42.7557686 119.259,43.5857686 L119.259,44.0857686 L118.259,44.0857686 C116.919,44.0857686 116.089,44.6857686 116.089,45.7857686 C116.089,46.7157686 116.699,47.3457686 117.709,47.3457686 C118.409,47.3457686 118.959,47.0557686 119.339,46.4757686 C119.419,47.0157686 119.689,47.2457686 120.149,47.3457686 L120.279,46.9357686 C119.999,46.8257686 119.839,46.6557686 119.839,46.0757686 L119.839,43.5557686 C119.839,42.4857686 119.319,41.8957686 118.129,41.8957686 L118.129,41.8957686 Z M119.259,44.5157686 L119.259,45.9357686 C118.939,46.5457686 118.479,46.8757686 117.809,46.8757686 C117.119,46.8757686 116.709,46.4757686 116.709,45.7557686 C116.709,44.9257686 117.299,44.5157686 118.349,44.5157686 L119.259,44.5157686 Z M122.449,42.0057686 L121.949,42.0057686 L121.949,47.2357686 L122.529,47.2357686 L122.529,44.0557686 C122.799,42.9757686 123.199,42.4457686 123.929,42.4457686 C124.109,42.4457686 124.239,42.4657686 124.389,42.5057686 L124.499,41.9557686 C124.359,41.9157686 124.179,41.8957686 123.979,41.8957686 C123.249,41.8957686 122.779,42.3157686 122.499,43.1757686 L122.449,42.0057686 Z M130.909,40.2757686 C129.479,40.2757686 128.069,41.4357686 128.069,43.7857686 C128.069,46.1557686 129.199,47.3457686 130.869,47.3457686 C131.649,47.3457686 132.329,47.1357686 132.929,46.7857686 L132.929,43.5457686 L130.929,43.5457686 L130.999,44.0457686 L132.339,44.0457686 L132.339,46.4757686 C131.909,46.7157686 131.459,46.8357686 130.899,46.8357686 C129.549,46.8357686 128.699,45.8857686 128.699,43.7857686 C128.699,41.6157686 129.839,40.7857686 130.919,40.7857686 C131.539,40.7857686 131.969,40.9557686 132.449,41.3257686 L132.809,40.9557686 C132.249,40.5057686 131.729,40.2757686 130.909,40.2757686 L130.909,40.2757686 Z M137.739,45.7957686 C137.379,46.4157686 136.899,46.8657686 136.209,46.8657686 C135.529,46.8657686 135.179,46.5157686 135.179,45.6857686 L135.179,42.0057686 L134.599,42.0057686 L134.599,45.7457686 C134.599,46.7757686 135.139,47.3457686 136.079,47.3457686 C136.889,47.3457686 137.419,46.9357686 137.789,46.3157686 L137.819,47.2357686 L138.319,47.2357686 L138.319,42.0057686 L137.739,42.0057686 L137.739,45.7957686 Z M141.019,42.0057686 L140.439,42.0057686 L140.439,47.2357686 L141.019,47.2357686 L141.019,42.0057686 Z M140.719,39.7057686 C140.459,39.7057686 140.289,39.8957686 140.289,40.1257686 C140.289,40.3557686 140.459,40.5457686 140.719,40.5457686 C140.989,40.5457686 141.159,40.3557686 141.159,40.1257686 C141.159,39.8957686 140.989,39.7057686 140.719,39.7057686 L140.719,39.7057686 Z M143.669,39.8057686 L143.089,39.8757686 L143.089,46.3357686 C143.089,47.0257686 143.429,47.3457686 143.989,47.3457686 C144.209,47.3457686 144.429,47.2857686 144.609,47.2057686 L144.449,46.7757686 C144.339,46.8257686 144.219,46.8457686 144.099,46.8457686 C143.789,46.8457686 143.669,46.6757686 143.669,46.3357686 L143.669,39.8057686 Z M147.459,41.8957686 C146.179,41.8957686 145.409,43.0357686 145.409,44.6457686 C145.409,46.3057686 146.149,47.3457686 147.369,47.3457686 C148.129,47.3457686 148.639,46.9557686 148.939,46.4357686 L149.009,47.2357686 L149.509,47.2357686 L149.509,39.8757686 L148.929,39.8057686 L148.929,42.6057686 C148.629,42.2357686 148.179,41.8957686 147.459,41.8957686 L147.459,41.8957686 Z M148.929,45.8957686 C148.579,46.5057686 148.159,46.8657686 147.459,46.8657686 C146.579,46.8657686 146.029,46.0957686 146.029,44.6357686 C146.019,43.1657686 146.639,42.3757686 147.559,42.3757686 C148.199,42.3757686 148.619,42.7257686 148.929,43.1657686 L148.929,45.8957686 Z" id="Wildstar-Guild" fill="#FFFFFF" sketch:type="MSShapeGroup"></path>
            <path d="M74.9517104,17.4244246 L69.2877104,17.4244246 L64.9917104,25.2484246 L69.1197104,34.1764246 L75.3597104,34.1764246 L70.5597104,24.8164246 L74.9517104,17.4244246 Z M64.8477104,17.4244246 L59.3037104,17.4244246 L59.3037104,34.1764246 L64.8477104,34.1764246 L64.8477104,17.4244246 Z M80.9989104,20.8084246 C79.5109104,20.8084246 77.3989104,21.1684246 75.7669104,21.8404246 L76.9189104,25.1764246 C78.1909104,24.7444246 79.5109104,24.5044246 80.2069104,24.5044246 C81.5509104,24.5044246 81.8629104,24.7684246 81.8629104,25.9444246 L81.8629104,26.1124246 L81.1909104,26.1124246 C77.0389104,26.1124246 74.8549104,27.6964246 74.8549104,30.5524246 C74.8549104,32.9524246 76.5589104,34.7044246 79.1269104,34.7044246 C80.5909104,34.7044246 82.0549104,34.2724246 83.0149104,32.8324246 C83.8069104,34.0564246 84.9589104,34.4884246 86.6869104,34.5844246 L87.7669104,31.2004246 C87.1909104,30.9844246 87.0469104,30.6244246 87.0469104,29.7604246 L87.0469104,25.6564246 C87.0469104,22.3684246 85.3189104,20.8084246 80.9989104,20.8084246 Z M81.8629104,28.8244246 L81.8629104,30.4564246 C81.6469104,30.7444246 81.2389104,30.9844246 80.8069104,30.9844246 C80.3509104,30.9844246 80.0149104,30.5764246 80.0149104,30.0244246 C80.0149104,29.1844246 80.5189104,28.8244246 81.6229104,28.8244246 L81.8629104,28.8244246 Z M93.9821104,15.7684246 L88.6541104,16.2964246 L88.6541104,34.1764246 L93.4061104,34.1764246 L93.5501104,33.1204246 C94.2701104,34.1044246 95.4221104,34.7044246 96.8621104,34.7044246 C100.12611,34.7044246 102.02211,31.6804246 102.02211,27.7924246 C102.02211,23.4724246 100.55811,20.8084246 97.1501104,20.8084246 C96.0221104,20.8084246 94.6301104,21.4324246 93.9821104,22.3444246 L93.9821104,15.7684246 Z M93.9821104,25.5844246 C94.4381104,24.7924246 94.9421104,24.5764246 95.3981104,24.5764246 C96.0221104,24.5764246 96.5981104,24.9124246 96.5981104,27.7924246 C96.5981104,30.2884246 96.0221104,30.9364246 95.2541104,30.9364246 C94.7021104,30.9364246 94.2941104,30.7204246 93.9581104,30.1684246 L93.9821104,30.0724246 L93.9821104,25.5844246 Z M109.34131,20.8084246 C105.14131,20.8084246 102.52531,23.4724246 102.52531,27.7204246 C102.52531,32.2804246 105.21331,34.7044246 109.34131,34.7044246 C113.54131,34.7044246 116.15731,32.0164246 116.15731,27.7924246 C116.15731,23.2084246 113.46931,20.8084246 109.34131,20.8084246 Z M109.34131,24.5764246 C110.32531,24.5764246 110.73331,25.4164246 110.73331,27.7924246 C110.73331,30.0004246 110.32531,30.9124246 109.34131,30.9124246 C108.35731,30.9124246 107.94931,30.0964246 107.94931,27.7204246 C107.94931,25.4884246 108.33331,24.5764246 109.34131,24.5764246 Z M123.35651,20.8084246 C119.15651,20.8084246 116.54051,23.4724246 116.54051,27.7204246 C116.54051,32.2804246 119.22851,34.7044246 123.35651,34.7044246 C127.55651,34.7044246 130.17251,32.0164246 130.17251,27.7924246 C130.17251,23.2084246 127.48451,20.8084246 123.35651,20.8084246 Z M123.35651,24.5764246 C124.34051,24.5764246 124.74851,25.4164246 124.74851,27.7924246 C124.74851,30.0004246 124.34051,30.9124246 123.35651,30.9124246 C122.37251,30.9124246 121.96451,30.0964246 121.96451,27.7204246 C121.96451,25.4884246 122.34851,24.5764246 123.35651,24.5764246 Z M135.73971,21.3124246 L131.08371,21.3124246 L131.08371,34.1764246 L136.41171,34.1764246 L136.41171,25.7044246 C136.69971,24.9364246 137.10771,24.6484246 137.34771,24.6484246 C137.58771,24.6484246 137.75571,24.8164246 137.75571,25.6324246 L137.75571,34.1764246 L143.08371,34.1764246 L143.08371,25.7044246 C143.34771,24.9364246 143.77971,24.6484246 144.01971,24.6484246 C144.23571,24.6484246 144.40371,24.8164246 144.40371,25.6324246 L144.40371,34.1764246 L149.73171,34.1764246 L149.73171,24.6244246 C149.73171,22.1764246 148.41171,20.8084246 146.51571,20.8084246 C144.95571,20.8084246 143.77971,21.2644246 142.67571,22.5604246 C142.14771,21.4084246 141.11571,20.8084246 139.84371,20.8084246 C138.35571,20.8084246 137.20371,21.2644246 136.09971,22.4884246 L135.73971,21.3124246 Z" id="Kaboom" fill="#FFFFFF" sketch:type="MSShapeGroup"></path>
            <g id="Icon" sketch:type="MSLayerGroup" transform="translate(3.000000, 3.000000)">
                <path d="M3.296,51.519 C2.062,51.519 1.046,50.945 0.438,49.902 C-0.159,48.88 -0.129,47.713 0.522,46.615 C0.958,45.876 5.321,38.467 10.368,29.897 C17.937,17.045 26.515,2.478 26.763,2.069 C27.438,0.951 28.526,0.379 29.851,0.497 C30.652,0.569 31.761,0.949 32.498,2.355 C33.106,3.464 58.369,46.257 58.545,46.546 C59.219,47.633 59.263,48.821 58.665,49.889 C58.079,50.939 57.043,51.518 55.748,51.518 C49.193,51.514 5.219,51.511 3.316,51.519 L3.296,51.519 L3.296,51.519 Z M29.536,3.379 C29.404,3.379 29.34,3.398 29.239,3.565 C29.001,3.96 20.052,19.156 12.862,31.366 C7.813,39.938 3.449,47.349 3.012,48.089 C2.87,48.328 2.899,48.379 2.937,48.444 C3.011,48.569 3.053,48.624 3.296,48.624 L3.296,50.072 L3.302,48.624 C5.208,48.616 49.196,48.621 55.745,48.623 C56.057,48.623 56.093,48.559 56.139,48.478 C56.198,48.372 56.233,48.309 56.084,48.068 C55.895,47.764 30.356,4.503 29.934,3.698 C29.776,3.396 29.691,3.388 29.593,3.38 C29.573,3.379 29.554,3.379 29.536,3.379 L29.536,3.379 Z" id="Fill-1" fill="#FFCC00" sketch:type="MSShapeGroup"></path>
                <path d="M3.31,50.072 C2.592,50.075 2.045,49.785 1.687,49.173 C1.329,48.559 1.413,47.949 1.766,47.352 C2.84,45.537 27.591,3.496 28.001,2.817 C28.39,2.172 28.975,1.872 29.722,1.938 C30.427,2.001 30.888,2.399 31.216,3.026 C31.583,3.726 56.982,46.77 57.314,47.306 C57.695,47.921 57.758,48.547 57.402,49.183 C57.044,49.825 56.463,50.072 55.744,50.071 C49.198,50.067 5.212,50.063 3.31,50.072" id="Fill-2" fill="#000000" sketch:type="MSShapeGroup"></path>
                <path d="M31.923,16.218 C31.878,16.245 31.809,16.26 31.792,16.299 C31.629,16.677 31.476,17.059 31.32,17.44 C31.522,17.152 31.714,16.863 31.879,16.558 C31.93,16.463 31.906,16.327 31.917,16.21 C31.986,16.157 32.08,16.118 32.122,16.048 C32.403,15.57 32.659,15.076 32.953,14.606 C33.115,14.348 33.115,14.138 32.888,13.887 C32.558,14.646 32.234,15.387 31.914,16.129 C31.904,16.153 31.919,16.188 31.923,16.218 L31.923,16.218 Z M23.185,35.942 L23.195,35.952 C23.121,35.898 23.035,35.855 22.974,35.79 C22.724,35.522 22.537,35.665 22.362,35.878 C22.225,36.046 22.098,36.222 21.961,36.391 C21.811,36.576 21.654,36.756 21.5,36.939 C21.46,36.843 21.474,36.787 21.498,36.733 C22.752,33.9 31.575,13.972 32.155,12.694 C32.261,12.459 32.245,12.28 32.118,12.063 C31.558,11.098 29.797,7.989 29.451,7.384 C29.392,7.468 29.348,7.523 29.312,7.584 C27.765,10.211 26.216,12.837 24.676,15.47 C24.567,15.657 24.504,15.878 24.457,16.093 C24.376,16.452 20.42,35.971 20.336,36.361 C19.924,36.285 19.563,36.178 19.197,36.162 C18.904,36.149 18.791,36.06 18.729,35.776 C18.343,34.021 17.296,29.463 17.156,28.863 C16.815,29.445 16.518,29.963 16.208,30.472 C16.102,30.647 16.089,30.789 16.187,30.982 C16.768,32.124 18.359,35.342 18.587,35.803 C18.013,36.082 17.723,35.968 17.437,35.375 C17.212,34.908 17.113,34.874 16.651,35.103 C16.3,35.278 16.193,35.245 15.98,34.896 C15.914,34.79 15.85,34.685 15.786,34.578 C15.498,34.103 15.541,33.927 16.022,33.631 C16.073,33.599 16.126,33.572 16.234,33.512 C15.949,33.019 15.669,32.535 15.355,31.993 C12.618,36.873 9.919,41.685 7.196,46.539 C14.529,46.611 21.798,46.682 29.159,46.754 C26.719,45.307 22.02,42.442 22.027,42.407 C22.5,42.342 22.994,42.308 23.034,41.668 C23.198,41.699 48.087,46.698 48.802,46.729 C49.905,46.777 52.172,46.653 52.208,46.639 C52.192,46.592 51.088,44.445 50.535,43.417 C50.484,43.324 50.338,43.243 50.226,43.228 C47.802,42.887 25.167,39.784 24.383,39.676 C24.385,39.649 24.387,39.623 24.389,39.596 C32.037,39.971 48.386,40.782 48.661,40.782 C48.512,40.442 48.357,40.12 48.231,39.786 C48.154,39.579 48.038,39.517 47.819,39.512 C44.77,39.439 29.053,39.02 28.741,39.003 C28.742,38.984 28.743,38.965 28.744,38.946 C34.859,38.652 40.975,38.358 47.144,38.062 C46.661,37.18 46.214,36.355 45.752,35.538 C45.719,35.479 45.578,35.443 45.494,35.454 C43.566,35.689 25.793,37.941 25.244,38.011 C25.239,37.986 25.234,37.962 25.231,37.937 C31.674,36.456 38.117,34.974 44.596,33.484 C43.838,32.115 43.106,30.791 42.367,29.454 C37.293,31.79 32.255,34.11 27.218,36.429 C27.207,36.408 27.196,36.386 27.185,36.364 C31.902,33.493 36.618,30.622 41.355,27.738 C40.858,26.935 40.388,26.174 39.902,25.389 C34.294,29.549 28.716,33.687 23.138,37.825 C23.147,37.712 23.196,37.649 23.252,37.593 C26.523,34.365 36.453,24.571 38.152,22.908 C38.321,22.742 38.355,22.622 38.223,22.411 C37.934,21.946 37.229,20.717 37.128,20.564 C33.552,24.405 29.996,28.224 26.439,32.043 C26.43,31.924 36.474,19.125 36.335,18.92 C36.127,18.613 34.565,16.073 34.385,15.721 C33.241,17.614 32.146,19.426 31.078,21.194 C31.303,21.126 31.545,20.991 31.787,20.995 C32.262,21 32.687,20.983 32.983,20.528 C33.038,20.445 33.344,20.402 33.371,20.445 C33.541,20.708 33.798,21.012 33.775,21.282 C33.726,21.873 33.355,22.355 32.967,22.8 C32.942,22.828 32.89,22.83 32.856,22.851 C32.682,22.954 32.463,23.021 32.346,23.169 C32.103,23.478 31.824,23.495 31.494,23.386 C31.377,23.347 31.259,23.3 31.138,23.28 C30.764,23.219 30.661,22.963 30.655,22.633 C30.652,22.444 30.654,22.254 30.654,22.065 C30.626,22.061 30.598,22.057 30.57,22.052 C30.515,22.135 24.313,32.28 23.597,33.43 C23.458,33.653 23.373,33.888 23.609,34.066 C23.907,34.291 23.976,34.585 23.974,34.921 C24.427,34.965 24.475,34.93 24.579,34.512 C24.604,34.414 24.632,34.31 24.685,34.223 C24.829,33.989 25.023,33.979 25.216,34.178 C25.452,34.422 25.238,34.562 25.097,34.717 C24.78,35.066 24.43,35.391 24.153,35.771 C23.925,36.083 23.861,36.153 23.48,36.035 C23.382,36.003 23.283,35.974 23.185,35.942 L23.185,35.942 Z M35.011,46.77 C34.785,46.674 34.617,46.599 34.446,46.531 C33.74,46.248 33.03,45.974 32.426,45.492 C32.314,45.401 32.184,45.327 32.09,45.22 C31.931,45.038 31.981,44.84 32.206,44.751 C32.318,44.707 32.453,44.666 32.566,44.686 C33.088,44.779 33.609,44.882 34.125,45.005 C34.394,45.069 34.654,45.178 34.915,45.273 C35.497,45.484 36.078,45.695 36.657,45.913 C37.061,46.065 37.45,46.269 37.864,46.38 C39.189,46.73 40.542,46.506 41.889,46.502 C36.261,45.144 30.634,43.786 24.913,42.404 C25.193,42.751 25.313,43.031 24.941,43.305 C25.647,43.594 26.291,43.874 26.949,44.115 C27.08,44.163 27.291,44.102 27.419,44.019 C27.65,43.871 28.136,43.822 28.357,43.979 C28.551,44.116 28.544,44.267 28.337,44.381 C28.254,44.427 28.169,44.473 28.031,44.549 C30.236,45.75 32.37,46.945 35.011,46.77 L35.011,46.77 Z M17.909,27.307 C17.88,27.593 17.812,27.821 17.844,28.034 C18.075,29.577 18.329,31.115 18.569,32.657 C18.708,33.552 18.702,33.552 19.617,33.599 C19.638,33.6 19.659,33.601 19.679,33.602 C20.229,33.633 20.241,33.634 20.308,33.084 C20.386,32.442 20.44,31.796 20.506,31.135 C20.393,31.126 20.323,31.123 20.253,31.116 C19.325,31.023 18.941,30.438 18.951,29.617 C18.953,29.431 19.086,29.184 19.239,29.078 C19.451,28.93 19.515,28.762 19.523,28.538 C19.531,28.291 19.51,28.039 19.549,27.796 C19.567,27.685 19.74,27.494 19.774,27.507 C20.182,27.674 20.502,27.351 20.885,27.378 C21.101,25.266 21.312,23.192 21.523,21.118 C21.401,21.246 21.351,21.399 21.254,21.516 C20.824,22.039 20.778,22.603 21.034,23.211 C21.046,23.239 21.055,23.274 21.049,23.302 C21.013,23.458 21.015,23.65 20.921,23.759 C20.738,23.971 20.644,24.185 20.608,24.468 C20.532,25.066 20.302,25.183 19.783,24.904 C19.508,24.756 19.384,24.833 19.265,25.092 C19.088,25.475 18.903,25.858 18.677,26.213 C18.547,26.416 18.528,26.588 18.624,26.788 C18.708,26.965 18.841,27.129 18.881,27.314 C18.911,27.451 18.865,27.644 18.778,27.75 C18.727,27.813 18.507,27.795 18.402,27.74 C18.252,27.662 18.139,27.516 17.909,27.307 L17.909,27.307 Z M40.11,29.553 C40.736,29.583 41.132,29.254 41.594,28.999 C41.493,28.854 41.419,28.75 41.333,28.626 C40.934,28.938 40.389,28.995 40.11,29.553 L40.11,29.553 Z" id="Fill-3" fill="#FFCC00" sketch:type="MSShapeGroup"></path>
                <path d="M19.938,41.235 C20.04,41.403 20.099,41.54 20.193,41.645 C20.26,41.721 20.369,41.784 20.467,41.801 C20.607,41.825 20.756,41.797 20.9,41.8 C21.155,41.806 21.338,41.91 21.39,42.18 C21.394,42.2 21.397,42.221 21.402,42.241 C21.63,42.968 21.627,42.964 20.96,43.364 C20.27,43.777 19.552,44.094 18.742,44.192 C17.323,44.365 15.661,43.544 15.09,42.235 C14.32,40.469 14.563,38.61 16.304,37.2 C16.541,37.008 16.831,36.872 17.112,36.747 C17.46,36.593 17.751,36.718 17.895,37.064 C18.001,37.32 18.085,37.587 18.168,37.852 C18.261,38.149 18.186,38.377 17.884,38.513 C17.688,38.602 17.495,38.71 17.614,38.978 C17.722,39.224 17.937,39.201 18.146,39.155 C18.276,39.125 18.402,39.057 18.533,39.047 C18.659,39.039 18.811,39.047 18.915,39.108 C19.237,39.297 19.534,39.528 19.856,39.716 C20.002,39.801 20.181,39.849 20.35,39.869 C20.701,39.911 20.79,40.048 20.598,40.347 C20.442,40.587 20.248,40.801 20.074,41.029 C20.014,41.108 19.963,41.195 19.938,41.235" id="Fill-4" fill="#000000" sketch:type="MSShapeGroup"></path>
                <path d="M28.205,19.684 C28.023,20.09 27.896,20.536 27.644,20.894 C27.267,21.433 26.816,21.924 26.371,22.412 C25.973,22.848 25.289,22.678 25.099,22.108 C25.031,21.904 24.995,21.687 24.97,21.473 C24.941,21.231 25.031,21.063 25.253,20.909 C25.45,20.772 25.585,20.532 25.718,20.319 C25.886,20.048 26.003,19.744 26.18,19.48 C26.409,19.138 26.642,19.098 27.002,19.307 C27.193,19.418 27.351,19.455 27.572,19.336 C27.872,19.174 28.143,19.351 28.131,19.651 C28.155,19.662 28.181,19.673 28.205,19.684" id="Fill-5" fill="#000000" sketch:type="MSShapeGroup"></path>
                <path d="M22.074,40.662 C21.804,40.692 21.533,40.752 21.265,40.74 C21.112,40.732 20.937,40.633 20.825,40.521 C20.774,40.47 20.82,40.273 20.876,40.171 C21.086,39.788 21.306,39.407 21.551,39.044 C21.626,38.932 21.792,38.818 21.919,38.814 C22.339,38.8 22.764,38.816 23.182,38.862 C23.491,38.895 23.521,38.993 23.377,39.279 C23.341,39.352 23.304,39.431 23.25,39.49 C23.057,39.704 22.925,39.878 23.291,40.079 C23.474,40.178 23.36,40.555 23.115,40.615 C22.78,40.697 22.43,40.715 22.086,40.761 C22.082,40.727 22.078,40.695 22.074,40.662" id="Fill-6" fill="#000000" sketch:type="MSShapeGroup"></path>
                <path d="M31.979,41.77 C32.029,41.536 32.272,41.54 32.481,41.534 C32.923,41.524 33.383,41.47 33.807,41.564 C34.351,41.686 34.871,41.923 35.392,42.135 C35.647,42.239 35.614,42.485 35.567,42.701 C35.519,42.924 35.345,42.939 35.155,42.922 C34.24,42.835 33.325,42.756 32.412,42.659 C32.334,42.651 32.235,42.551 32.202,42.47 C32.117,42.263 32.064,42.045 31.979,41.77" id="Fill-7" fill="#000000" sketch:type="MSShapeGroup"></path>
                <path d="M36.447,34.111 C36.454,34.606 35.778,35.102 35.264,35.008 C34.999,34.96 34.722,34.98 34.449,34.972 C34.408,34.97 34.367,34.977 34.326,34.98 C34.032,35.008 33.789,34.93 33.676,34.631 C33.591,34.406 33.752,34.086 33.995,33.915 C34.381,33.642 34.794,33.434 35.245,33.279 C35.963,33.033 36.438,33.348 36.447,34.111" id="Fill-8" fill="#000000" sketch:type="MSShapeGroup"></path>
                <path d="M20.014,38.903 C19.918,38.821 19.825,38.767 19.767,38.687 C19.601,38.458 19.429,38.283 19.101,38.363 C18.908,38.411 18.701,38.392 18.617,38.146 C18.535,37.908 18.705,37.825 18.846,37.677 C19.264,37.238 19.781,37.349 20.262,37.398 C20.57,37.429 20.873,37.607 21.15,37.767 C21.229,37.812 21.28,38.07 21.226,38.153 C20.95,38.578 20.447,38.644 20.014,38.903" id="Fill-9" fill="#000000" sketch:type="MSShapeGroup"></path>
                <path d="M23.448,29.892 C23.29,29.81 23.052,29.767 22.989,29.638 C22.848,29.352 22.605,29.027 22.91,28.701 C23.175,28.417 23.35,27.985 23.865,28.069 C24.072,28.104 24.167,28.178 24.119,28.419 C24.047,28.793 23.9,29.144 23.983,29.561 C24.046,29.87 23.708,29.835 23.448,29.892" id="Fill-10" fill="#000000" sketch:type="MSShapeGroup"></path>
                <path d="M26.814,29.264 C26.872,28.822 27.279,28.303 27.659,28.201 C27.947,28.123 28.039,28.321 28.142,28.519 C28.247,28.718 28.268,28.895 28.036,29.014 C27.815,29.127 27.623,29.245 27.522,29.503 C27.487,29.591 27.234,29.681 27.142,29.639 C27.004,29.575 26.92,29.395 26.814,29.264" id="Fill-11" fill="#000000" sketch:type="MSShapeGroup"></path>
                <path d="M23.213,44.642 C23.104,44.614 23.021,44.606 22.949,44.573 C22.664,44.441 22.377,44.314 22.105,44.16 C22.003,44.103 21.942,43.978 21.863,43.883 C21.958,43.804 22.065,43.645 22.146,43.658 C22.517,43.719 22.882,43.819 23.244,43.922 C23.326,43.945 23.423,44.021 23.451,44.096 C23.498,44.223 23.536,44.38 23.499,44.498 C23.476,44.572 23.306,44.6 23.213,44.642" id="Fill-12" fill="#000000" sketch:type="MSShapeGroup"></path>
                <path d="M27.285,37.163 C27.065,37.472 26.798,37.514 26.471,37.367 C26.217,37.253 25.948,37.173 25.69,37.07 C25.46,36.977 25.472,36.826 25.65,36.707 C25.771,36.627 25.956,36.538 26.072,36.576 C26.459,36.702 26.828,36.881 27.201,37.046 C27.239,37.064 27.259,37.125 27.285,37.163" id="Fill-13" fill="#000000" sketch:type="MSShapeGroup"></path>
                <path d="M30.794,42.687 C30.44,42.635 30.085,42.594 29.735,42.53 C29.457,42.478 29.488,42.239 29.54,42.063 C29.56,41.994 29.763,41.962 29.888,41.942 C30.013,41.921 30.145,41.938 30.293,41.938 C30.341,41.969 30.436,42.05 30.545,42.1 C30.768,42.204 30.957,42.313 30.794,42.687" id="Fill-14" fill="#000000" sketch:type="MSShapeGroup"></path>
                <path d="M26.466,40.636 C26.875,40.623 27.278,40.864 27.395,41.184 C27.42,41.255 27.41,41.388 27.362,41.429 C27.289,41.49 27.135,41.551 27.074,41.514 C26.858,41.386 26.644,41.236 26.478,41.051 C26.41,40.976 26.466,40.788 26.466,40.636" id="Fill-15" fill="#000000" sketch:type="MSShapeGroup"></path>
                <path d="M22.584,31.49 C22.556,31.463 22.397,31.38 22.382,31.276 C22.341,30.975 22.571,30.643 22.768,30.646 C23.03,30.651 23.211,30.813 23.214,31.043 C23.217,31.38 23.094,31.489 22.584,31.49" id="Fill-16" fill="#000000" sketch:type="MSShapeGroup"></path>
                <path d="M16.009,37.164 C15.826,36.945 15.703,36.797 15.58,36.65 C15.788,36.538 15.99,36.412 16.209,36.331 C16.245,36.317 16.438,36.544 16.415,36.593 C16.331,36.774 16.186,36.928 16.009,37.164" id="Fill-17" fill="#000000" sketch:type="MSShapeGroup"></path>
                <path d="M23.185,35.942 C23.359,36.108 23.401,36.282 23.221,36.471 C23.076,36.621 22.73,36.629 22.576,36.468 C22.537,36.427 22.544,36.266 22.579,36.246 C22.776,36.134 22.988,36.048 23.195,35.952 L23.185,35.942" id="Fill-18" fill="#000000" sketch:type="MSShapeGroup"></path>
                <path d="M17.169,36.412 C16.802,36.421 16.676,36.268 16.697,36.015 C16.703,35.946 16.82,35.842 16.895,35.834 C17.125,35.81 17.353,36.02 17.313,36.215 C17.294,36.307 17.192,36.381 17.169,36.412" id="Fill-19" fill="#000000" sketch:type="MSShapeGroup"></path>
            </g>
        </g>
    </g>
</svg>