<?xml version="1.0" encoding="UTF-8" standalone="no"?>
<svg width="1744px" height="573px" viewBox="0 0 1744 573" version="1.1" xmlns="http://www.w3.org/2000/svg" xmlns:xlink="http://www.w3.org/1999/xlink" xmlns:sketch="http://www.bohemiancoding.com/sketch/ns">
    <title>Vector Logo</title>
    <description>Created with Sketch (http://www.bohemiancoding.com/sketch)</description>
    <defs></defs>
    <g id="Page-1" stroke="none" stroke-width="1" fill="none" fill-rule="evenodd" sketch:type="MSPage">
        <g id="Extinction" sketch:type="MSLayerGroup" transform="translate(0.000000, 272.000000)" fill="#FFFFFF">
            <path d="M0.664,1.885 L23.906,1.885 L25.234,2.217 L26.23,1.885 L28.72,2.217 L31.708,1.885 L31.708,2.217 L32.206,1.885 L37.352,2.217 L44.491,2.217 L45.985,2.549 L47.313,2.217 L47.645,2.549 L47.977,2.217 L49.139,2.217 L50.467,2.549 L52.791,2.217 L73.875,2.217 L74.207,2.549 L74.705,2.217 L75.037,2.217 L113.387,1.885 L116.043,1.885 L120.857,2.217 L124.343,1.885 L125.837,2.217 L127.165,1.885 L129.157,2.217 L132.643,1.885 L132.975,1.885 L134.469,2.217 L134.801,1.885 L135.797,1.885 L135.797,2.217 L139.947,1.885 L144.097,1.885 L144.097,2.549 L148.579,2.217 L149.575,2.549 L152.729,1.885 L159.702,2.217 L178.296,2.217 L178.296,8.526 C176.857,13.398 176.138,20.147 176.138,28.78 L176.138,60.323 L172.818,60.655 L162.359,60.655 L147.916,60.987 L147.916,60.655 L147.584,60.987 L147.252,60.987 C144.928,60.878 143.766,60.655 143.766,60.323 L142.77,60.987 L140.944,60.655 L138.62,60.987 C136.96,60.766 136.13,60.546 136.13,60.323 L133.308,60.987 L131.98,60.323 L131.648,60.655 L123.347,60.655 L123.015,60.323 L122.683,60.655 L118.533,60.655 L118.201,60.323 L117.869,60.655 L111.892,60.655 L109.9,60.323 L108.074,60.655 L106.082,60.655 L105.75,60.323 L105.418,60.655 L99.109,60.655 L98.777,60.323 L98.445,60.655 L97.117,60.655 L96.785,60.323 L96.453,60.655 L93.631,60.655 L93.299,60.323 L92.967,60.655 L89.481,60.655 L89.149,60.323 L88.817,60.655 L88.485,60.655 L80.184,59.991 L73.875,60.323 L61.094,60.323 C61.094,59.327 60.871,58.829 60.43,58.829 C59.987,58.829 59.766,59.218 59.766,59.991 L59.434,60.323 L53.623,60.323 L52.129,61.651 L57.275,61.319 L58.437,61.319 L58.769,63.809 L57.773,64.141 L57.773,64.805 L58.437,64.805 L58.437,65.469 C58.437,65.912 57.939,66.133 56.943,66.133 L56.943,66.465 C57.939,66.465 58.437,66.797 58.437,67.461 L58.105,68.623 L58.437,68.955 L58.769,68.955 L58.437,83.398 L58.437,90.703 L59.101,92.363 L59.433,92.363 L60.429,91.699 L60.761,91.699 C62.421,91.81 63.251,92.031 63.251,92.363 C66.571,91.922 71.054,91.699 76.698,91.699 L77.03,92.031 L77.362,91.699 L136.132,92.031 L147.587,92.031 L148.251,92.695 L148.251,103.486 L146.923,112.451 L147.255,116.269 L146.923,121.748 C147.364,126.176 147.587,131.709 147.587,138.35 L147.255,150.801 L146.425,150.801 L146.425,151.133 L134.804,150.469 L130.322,150.469 L127.5,150.137 L123.682,150.469 L97.452,150.469 L94.63,150.801 L91.974,150.469 L83.009,150.469 L79.855,150.137 L78.859,150.469 L78.361,150.137 L76.369,150.469 L72.219,150.137 L69.065,150.469 L66.409,149.473 L66.409,150.137 L66.077,150.137 L64.583,149.805 L62.259,150.469 C61.484,150.028 61.097,148.643 61.097,146.319 C58.882,149.751 57.777,153.183 57.777,156.612 L58.109,156.944 C56.67,157.167 55.951,157.553 55.951,158.106 L58.109,158.106 L58.109,159.434 L57.777,161.592 L58.441,162.92 L58.109,168.399 C58.109,168.954 57.279,169.286 55.619,169.395 L55.619,169.893 L58.109,171.885 L58.109,176.367 L55.619,176.699 L55.619,177.363 L58.109,177.363 L58.109,180.185 C58.109,180.74 58.994,181.181 60.765,181.513 L61.097,181.513 L60.765,181.181 L60.765,180.185 L88.49,180.185 L88.49,181.181 L89.486,180.185 L94.3,180.517 L94.632,180.185 L94.964,180.185 L96.458,180.517 L99.114,180.185 L101.272,180.517 L102.268,180.185 L104.758,180.517 L105.09,180.185 L105.422,180.185 L105.754,180.517 L106.086,180.517 L107.746,180.185 L115.383,180.517 L148.918,180.517 L151.076,180.185 L152.736,180.517 L160.373,180.517 L165.852,180.849 L166.184,180.517 L166.516,180.517 L170.334,180.849 L173.488,180.849 C175.037,180.849 175.812,180.628 175.812,180.185 C177.25,180.628 177.97,181.072 177.97,181.513 L177.97,185.995 L177.638,190.809 L177.97,192.303 L177.638,192.303 L177.97,192.635 L177.97,192.967 L177.638,196.121 L177.97,197.449 L177.638,197.781 L177.97,198.777 L177.638,206.414 L177.97,215.379 L177.638,217.205 L177.97,218.865 L177.638,218.865 L177.97,219.861 L177.638,220.193 L177.97,221.355 L177.638,229.158 L177.97,234.138 L177.638,234.47 L177.638,234.802 L177.97,235.798 L177.638,239.948 L169.337,239.948 L167.179,239.616 L166.847,239.948 L162.697,239.616 L152.404,239.616 L142.277,238.62 L122.023,238.952 L120.529,239.284 L118.869,238.62 C117.873,239.063 116.379,239.284 114.387,239.284 L105.754,239.284 L103.928,238.952 L101.936,239.284 L80.85,239.284 L77.032,239.616 L75.704,239.284 L75.372,239.616 L73.546,239.284 L71.554,239.616 L70.89,239.616 L70.89,239.284 L66.74,239.616 L62.92,239.616 L58.77,239.284 L54.62,239.616 L51.134,239.616 L47.648,239.284 L45.988,239.616 L34.865,239.284 L32.873,239.616 L30.051,239.284 L28.059,239.616 L24.905,239.284 L22.747,239.284 L14.446,239.616 L12.786,238.952 L13.118,237.126 L12.122,237.126 C12.122,238.786 10.405,239.616 6.976,239.616 L0.335,239.284 L0.335,238.62 L0,234.473 L0.664,229.161 L0.332,228.829 L0.664,227.169 L0.664,221.358 L0.996,216.378 L0.664,215.05 L0.996,214.718 L0.664,213.722 L0.996,203.595 L0.996,200.607 C1.217,199.058 1.549,198.228 1.992,198.117 C1.328,195.572 0.996,189.928 0.996,181.183 L0.996,89.376 C1.66,83.623 2.158,75.322 2.49,64.474 L1.992,62.648 L2.49,61.652 L1.992,60.324 L2.49,60.324 C1.494,58.111 0.996,56.231 0.996,54.679 L0.996,52.687 L1.66,52.687 L1.66,53.351 L1.992,53.351 L1.992,52.023 C1.992,50.806 1.66,50.197 0.996,50.197 L0.996,48.869 L1.328,48.537 L0.996,48.205 L0.996,46.877 L1.992,46.379 L1.328,44.387 L1.66,41.233 L0.996,27.786 L1.66,18.489 L1.66,17.825 L1.328,17.825 L0.996,20.149 L0.332,20.149 L0.332,8.86 L0.664,1.885 L0.664,1.885 Z" id="Shape" sketch:type="MSShapeGroup"></path>
            <path d="M205.762,2.383 L214.561,3.047 L215.557,2.715 L219.043,3.047 L221.699,2.715 L227.51,3.047 L230.83,2.715 L233.32,3.047 L234.648,2.715 L235.644,3.047 L235.644,2.715 L235.976,3.047 L236.64,3.047 L238.798,2.715 L239.13,3.047 L239.462,3.047 L241.122,2.715 L244.11,3.379 L245.106,2.715 L245.604,3.047 L245.936,3.047 L246.268,2.715 L247.928,3.047 L252.244,3.047 L253.738,2.715 C254.179,3.047 255.73,3.379 258.386,3.711 L258.718,5.371 L258.718,22.637 L258.386,22.969 L258.718,23.301 L258.718,28.447 L258.386,30.771 L258.718,34.921 L258.718,85.556 C257.831,85.556 257.39,85.779 257.39,86.22 C258.275,86.331 258.718,86.663 258.718,87.216 L258.718,89.706 C258.718,90.481 258.275,91.257 257.39,92.03 L258.718,92.694 L259.88,92.03 L261.54,92.362 L263.2,92.362 L263.2,93.358 L263.864,93.358 C263.864,92.473 264.528,92.03 265.856,92.03 L266.852,92.362 L270.006,92.03 L272.662,92.03 L273.658,93.026 C275.982,92.694 277.144,92.362 277.144,92.03 L278.14,92.362 L282.954,92.03 L285.278,92.03 L284.946,91.698 L284.946,91.366 L285.278,91.034 L286.274,91.034 L286.274,92.03 L287.934,92.03 L289.428,92.362 L291.752,92.03 L297.563,92.03 L304.702,92.694 L307.358,92.03 L310.512,92.03 C310.512,92.917 310.733,93.358 311.176,93.358 C311.617,93.358 311.84,93.026 311.84,92.362 L312.172,92.03 L313.168,92.03 C314.273,92.585 314.828,93.469 314.828,94.686 L315.16,94.354 C315.601,92.585 316.431,91.698 317.65,91.698 L318.314,93.358 L318.646,93.358 C318.646,92.473 318.978,92.03 319.642,92.03 L319.642,91.366 L318.646,91.034 L318.978,88.71 L318.646,86.22 L318.978,86.22 L327.445,85.556 C327.445,84.892 326.172,84.56 323.627,84.56 L321.635,84.56 C321.635,85.447 320.86,85.888 319.311,85.888 L318.979,85.556 L318.979,85.224 L319.311,84.892 L319.311,84.56 L318.647,84.56 L318.647,79.081 L318.979,76.093 L318.647,75.097 L318.647,74.433 L318.979,74.433 L318.647,69.287 L318.647,60.82 L318.979,55.341 L318.647,53.349 L318.979,51.855 L318.647,48.203 L318.647,45.879 L318.979,44.053 L318.647,44.053 L318.979,43.721 L318.979,42.725 L318.647,37.579 L318.979,37.579 L318.647,37.247 L318.647,35.255 L318.979,34.923 L318.647,34.591 L318.647,34.259 L318.979,33.927 L318.647,32.267 L318.979,28.781 L318.647,26.125 L318.979,26.125 L318.647,25.793 L318.647,25.461 L319.311,24.797 L318.647,23.303 L318.647,22.639 L318.979,22.639 L318.647,20.315 L318.647,19.651 L318.979,17.659 L318.647,15.833 L319.311,13.841 L318.647,11.185 L318.647,9.857 C318.647,9.304 319.088,9.027 319.975,9.027 C319.311,7.922 318.979,6.814 318.979,5.707 L318.979,4.379 C318.979,3.826 319.42,3.494 320.307,3.383 L327.114,3.051 L334.253,3.715 L334.253,3.051 L336.577,3.383 L339.731,3.383 L341.059,3.051 L342.387,3.383 L342.387,3.051 L342.719,3.383 L344.711,3.383 L346.869,3.051 L349.193,3.715 L349.857,3.051 L350.189,3.383 L351.849,3.051 L367.953,3.051 L369.281,2.719 L370.609,3.051 L377.748,3.051 L378.08,3.383 L378.412,3.383 L377.748,53.354 L378.08,81.909 L377.416,84.233 L378.08,84.897 L378.08,94.36 C378.08,96.464 375.699,101.112 370.941,108.305 C369.502,112.18 368.007,114.116 366.459,114.116 C362.143,118.432 355.834,120.591 347.533,120.591 L346.869,121.587 L346.869,121.919 L348.861,121.919 L350.189,121.587 C355.611,122.251 358.324,123.026 358.324,123.911 L357.328,125.405 L357.328,125.737 L361.478,124.243 L362.142,125.405 L362.142,126.733 L361.146,128.393 L361.478,128.725 C363.248,127.729 364.244,126.956 364.466,126.401 C372.876,132.269 377.083,139.739 377.083,148.813 L377.083,156.284 L376.419,161.098 L377.083,163.09 L377.083,175.375 L376.751,175.707 L377.083,176.039 L377.083,182.514 L376.751,182.846 L377.083,183.178 L377.083,197.123 L376.419,217.045 L376.751,218.539 L376.419,219.535 L376.751,237.465 L377.083,237.797 L376.419,237.797 L376.751,238.129 L376.751,238.793 L376.419,239.955 L376.751,241.283 L377.415,273.822 L377.083,281.293 L377.083,292.25 L377.415,295.238 L377.083,296.566 L377.415,296.898 L377.415,297.396 L377.083,299.388 L377.083,300.716 L376.751,300.716 C348.085,272.271 333.255,256.777 332.259,254.232 L327.445,248.421 L327.113,248.421 L326.781,248.753 L326.449,248.753 C321.469,244.325 318.978,241.392 318.978,239.954 L319.642,238.792 L319.31,236.468 L319.31,235.14 L318.978,217.708 L319.31,215.384 L318.646,189.984 L318.978,186.498 L318.646,184.838 L318.978,169.565 L318.978,162.758 L319.31,160.766 L318.978,158.94 L319.31,158.608 L318.978,158.276 L318.978,154.292 C318.978,152.632 319.751,151.802 321.302,151.802 L321.302,151.47 L320.97,151.47 L319.974,151.802 L318.646,150.474 C317.539,151.138 315.492,151.47 312.503,151.47 L306.36,151.47 L305.364,151.802 L303.704,151.47 L292.415,151.47 L289.095,151.802 L285.941,151.47 L284.281,151.47 L282.953,151.802 L280.463,151.47 L266.186,151.47 L264.194,151.138 L262.534,151.47 L261.538,151.47 C260.763,151.47 259.933,151.138 259.048,150.474 L258.716,150.474 L257.388,151.47 C258.052,152.689 258.384,153.851 258.384,154.956 L258.384,155.952 L257.056,157.612 L258.384,157.944 L258.384,161.43 L257.72,161.43 L258.384,164.418 L258.384,180.023 L258.052,181.351 L258.384,181.683 L258.384,182.181 L258.052,183.509 L258.384,183.841 L258.384,184.173 L258.052,184.505 L258.052,185.501 L258.384,185.501 L258.052,188.821 L258.052,209.241 L257.72,210.569 L258.052,212.063 L258.052,212.727 L257.72,224.514 L257.388,224.514 L257.72,224.846 L257.72,226.008 L257.388,228.332 L257.72,231.32 L257.72,232.814 L257.388,234.142 L257.72,235.138 L257.388,240.617 L248.589,240.617 L246.597,240.949 L243.111,240.617 L214.556,240.617 L199.283,240.285 L198.619,239.455 L198.951,238.127 L199.283,218.537 L198.951,218.537 L199.283,217.375 L199.615,192.307 L199.947,190.315 L199.615,189.983 L199.947,185.833 L199.947,173.548 L200.279,172.22 L199.615,169.564 L199.615,169.232 L200.279,165.082 L199.947,155.287 L200.279,148.48 L200.611,148.48 L200.279,148.148 L200.279,147.816 C200.279,141.399 203.101,135.144 208.746,129.056 L212.564,126.4 L212.896,126.732 L213.56,126.732 C213.56,125.847 215.054,124.906 218.042,123.91 L218.374,124.242 C218.374,123.357 220.421,122.805 224.517,122.582 L227.173,122.582 L227.505,122.25 L228.833,122.914 C228.833,122.25 229.497,121.918 230.825,121.918 L230.825,121.586 C230.825,120.922 228.335,120.149 223.354,119.262 L222.69,119.262 C222.69,118.489 222.026,117.768 220.698,117.104 L218.042,118.266 L217.046,118.266 L217.046,117.602 L218.706,115.112 L218.374,114.78 L217.71,114.78 L212.564,115.776 C208.912,112.788 206.31,109.301 204.761,105.317 C201.773,102.772 200.279,92.811 200.279,75.434 L200.279,64.145 L200.611,64.145 L200.943,64.477 L201.275,64.477 L201.607,62.153 L201.607,60.161 L201.275,58.335 C202.271,58.335 202.769,57.894 202.769,57.007 C201.109,47.378 200.279,41.293 200.279,38.745 L201.275,38.413 L199.947,32.934 L200.279,31.274 L199.947,28.452 L199.947,28.12 L200.279,27.788 L199.947,27.456 L200.279,14.839 L200.279,4.38 C200.388,3.275 200.611,2.72 200.943,2.72 L205.762,2.383 L205.762,2.383 Z" id="Shape" sketch:type="MSShapeGroup"></path>
            <path d="M413.838,0.889 L413.838,1.553 L414.17,1.221 L415.83,1.553 L420.976,1.221 L480.576,1.553 L502.656,1.553 L508.467,1.885 L508.467,1.553 L508.799,1.885 L512.949,1.553 L520.918,1.885 L527.061,1.553 L527.061,2.549 L526.729,2.549 C521.969,3.213 519.59,3.934 519.59,4.707 L524.736,5.371 C552.183,3.047 569.504,1.885 576.699,1.885 L577.363,4.375 L577.031,13.008 L577.031,27.451 L576.699,32.93 L577.031,33.262 L577.031,33.594 L576.699,42.559 L576.699,60.157 C576.699,60.712 576.144,61.044 575.039,61.153 L574.209,61.153 L574.209,60.821 L570.889,61.153 L568.399,61.153 L560.596,60.489 L549.473,60.821 L548.477,60.821 L548.145,60.489 L547.813,60.821 L539.18,60.821 L535.362,60.489 L534.366,60.821 L529.22,60.489 L528.888,60.821 L528.556,60.821 L525.402,59.825 L523.742,60.821 L521.916,60.489 L520.588,60.821 L518.43,60.157 L518.098,60.157 L517.102,60.821 L517.434,61.153 L517.434,62.481 C517.434,62.924 516.77,63.145 515.442,63.145 L515.442,63.643 C515.442,64.086 516.106,64.307 517.434,64.307 L517.434,65.967 L516.77,66.963 L517.434,66.963 L517.434,67.627 L516.77,70.449 L517.434,71.113 L517.434,74.599 L517.102,86.552 L517.102,87.382 L517.434,87.382 L517.102,90.702 L517.102,106.307 L516.77,108.299 L517.102,108.631 L516.77,117.928 L516.77,194.129 L517.102,254.061 L517.434,259.207 L517.102,259.539 L517.102,259.871 L517.434,261.199 L517.1,261.199 L517.432,261.531 L517.432,291.912 L517.1,293.904 L517.432,295.73 L517.432,297.722 L517.1,297.722 C511.788,293.406 502.047,283.777 487.881,268.835 C486.885,268.612 479.192,261.142 464.805,246.423 C461.373,243.103 459.659,241.054 459.659,240.28 L459.991,239.118 L459.659,239.118 C458.663,239.118 457.942,237.624 457.501,234.636 L457.833,232.976 L457.833,230.652 L457.501,230.154 C457.942,228.826 458.331,228.162 458.663,228.162 L458.165,212.723 L458.165,205.75 L458.663,202.264 L458.165,199.276 L458.165,193.465 L458.663,187.82 L458.165,186.824 L458.663,186.492 L458.165,184.832 L458.663,182.674 L458.165,179.188 L458.663,172.049 L458.165,162.088 L458.165,161.756 L458.663,159.598 L458.165,159.266 L458.165,158.934 L458.663,157.274 L458.165,152.46 C458.497,141.614 458.995,135.638 459.659,134.53 L459.327,134.198 L459.659,130.712 L459.659,128.72 C459.659,128.167 459.161,127.89 458.165,127.89 L458.165,124.902 C458.274,119.813 458.552,117.265 458.995,117.265 C458.552,117.265 458.165,114.609 457.833,109.296 L457.5,109.296 C457.941,108.191 458.164,106.142 458.164,103.153 L458.164,88.046 L458.662,82.567 L458.164,82.235 L458.164,81.737 L458.662,80.741 L458.164,78.085 L458.662,75.263 L458.164,74.931 L458.164,74.6 L458.662,74.268 L458.662,73.936 L458.164,72.94 L459.326,63.975 L458.994,62.149 L460.986,61.817 L460.986,61.153 C460.099,61.153 459.658,60.932 459.658,60.489 L458.994,59.825 L458.164,59.825 L456.504,61.153 L452.686,60.821 L452.354,61.153 L452.022,61.153 L446.211,60.489 L443.057,60.489 L431.436,60.821 L419.981,60.489 L417.989,60.489 L415.831,60.157 L415.499,60.489 L413.175,60.157 L406.202,60.157 L401.056,59.825 L401.056,59.493 L400.392,33.927 L400.392,4.044 C400.392,2.275 400.724,1.333 401.388,1.222 L410.353,1.222 L413.838,0.889 L413.838,0.889 Z" id="Shape" sketch:type="MSShapeGroup"></path>
            <path d="M607.521,0.391 L613.83,1.055 L614.162,0.723 L616.652,1.055 L630.763,1.387 L631.095,1.055 L631.427,1.055 L633.585,1.387 L636.739,1.387 L638.067,1.719 L639.395,1.055 L641.553,1.719 L641.553,1.387 L641.885,1.719 L651.182,1.719 L651.514,1.387 L651.846,1.719 L658.155,1.719 C658.155,11.239 657.6,20.977 656.495,30.938 L656.827,32.266 L656.163,34.258 L656.827,34.258 L656.827,33.594 L657.159,33.926 L657.491,33.926 L657.159,41.563 L657.159,45.049 L656.827,45.381 L657.159,45.713 L657.159,48.867 C657.159,50.527 656.827,51.357 656.163,51.357 L656.827,75.927 L656.827,79.081 L657.491,81.737 L656.495,117.43 L656.827,117.762 L656.827,118.094 L656.495,121.912 L656.495,123.406 L656.827,125.066 L656.495,127.224 L656.495,133.699 L656.163,135.857 C656.604,136.853 656.827,138.347 656.827,140.339 L656.827,147.976 L657.159,159.099 L656.827,171.218 L656.827,184.665 C656.827,189.313 656.604,191.638 656.163,191.638 L656.827,193.63 L656.827,211.062 L657.159,217.537 L656.827,217.869 L657.159,221.355 L657.159,243.933 L656.827,247.751 C657.268,249.521 657.491,251.956 657.491,255.056 L657.159,259.87 L657.491,260.202 L657.491,260.534 C657.159,261.419 656.827,261.862 656.495,261.862 C656.827,261.862 657.159,264.739 657.491,270.495 L657.159,270.495 L657.491,270.993 L657.491,276.804 L657.159,278.464 L657.491,280.622 L657.491,282.78 L657.159,286.1 L657.491,289.586 L657.159,289.918 L657.159,290.25 L657.491,291.744 L657.491,293.072 L657.159,295.23 L657.491,296.558 L656.827,300.708 C655.608,300.708 649.134,294.343 637.403,281.616 C621.465,265.567 613.497,257.046 613.497,256.05 L608.018,248.745 L608.018,249.077 L610.01,251.899 L610.01,252.563 L609.678,252.563 C602.705,246.254 599.219,242.213 599.219,240.444 L598.555,239.116 L598.555,236.626 L598.887,236.626 L600.713,237.954 L600.713,237.622 C599.274,236.294 598.555,235.023 598.555,233.804 L598.555,229.322 L598.223,223.843 L598.555,222.847 L598.223,221.353 L598.555,210.728 L598.555,207.906 L598.223,198.443 L598.555,188.482 L598.555,182.173 L598.223,174.702 L598.555,174.702 L598.223,174.204 L598.555,171.88 L598.223,168.394 L598.555,166.734 L598.223,161.089 L598.223,154.946 L597.891,146.977 L598.223,144.155 L597.891,143.159 L598.223,143.159 L597.891,141.997 L600.049,130.21 L598.555,97.007 L598.887,97.007 L598.555,96.675 L598.555,92.193 L598.887,91.197 L598.555,89.371 L598.555,53.35 L598.887,45.049 L598.555,43.721 L600.049,30.938 L600.049,30.108 L599.551,30.108 L600.049,26.788 L600.049,18.321 L600.381,15.997 L601.045,15.997 C601.045,16.661 601.266,16.993 601.709,16.993 C600.934,14.228 600.381,12.843 600.049,12.843 L600.381,11.183 L600.381,3.214 L600.049,0.724 L601.045,0.724 C601.486,0.724 601.709,1.056 601.709,1.72 L602.373,1.72 L602.373,1.388 L602.041,1.056 L602.041,0.724 L604.863,0.724 L607.521,0.391 L607.521,0.391 Z" id="Shape" sketch:type="MSShapeGroup"></path>
            <path d="M682.703,0.889 L699.305,0.889 L707.274,1.221 L709.598,0.889 L716.405,1.553 L723.212,1.221 L727.03,1.553 L736.493,1.221 L741.972,1.221 L743.3,1.553 L743.798,1.221 L749.443,1.553 L783.31,1.553 L790.449,1.885 L792.441,1.553 L792.441,1.885 L792.773,1.553 L801.406,1.553 L808.545,1.885 L808.877,1.553 L809.209,1.553 L811.865,1.885 L827.304,1.553 L827.304,1.885 L827.636,2.217 L827.636,2.549 L829.296,1.885 L835.439,3.545 L837.265,3.545 L839.257,3.213 C846.671,3.656 852.261,6.865 856.025,12.842 L859.345,32.598 L859.013,44.883 L859.013,48.701 L859.345,60.986 L859.013,74.267 L859.013,90.537 L858.681,96.348 L859.013,96.348 L858.681,97.344 L858.349,133.867 L858.017,133.867 L858.349,134.863 L857.353,177.197 L857.685,177.529 L857.685,177.861 L857.353,181.015 C857.13,197.176 856.91,205.253 856.689,205.253 L856.025,205.253 L856.025,209.569 L855.527,211.063 C856.3,212.059 856.689,214.329 856.689,217.87 L856.689,221.19 L856.357,226.004 L856.689,226.336 L856.689,226.668 L856.357,230.818 L856.689,239.617 L856.357,240.613 C856.798,243.822 857.021,249.301 857.021,257.049 L857.021,261.863 L857.353,268.006 L857.021,272.82 L857.021,273.152 L857.353,276.14 L857.021,277.8 L857.353,278.132 L857.353,278.464 L856.025,283.278 L856.025,300.71 L855.527,300.71 C847.668,293.183 843.463,288.534 842.91,286.765 C820,263.523 808.545,250.906 808.545,248.913 L800.244,241.11 C800.133,236.462 799.912,228.936 799.58,218.532 L800.078,217.536 L799.58,217.204 L799.58,216.872 L800.078,214.382 L799.58,211.726 L800.078,210.73 L799.58,207.576 L799.58,205.252 L800.078,203.758 L799.58,201.434 L799.58,195.291 C799.58,187.434 800.519,177.418 802.402,165.242 L801.406,163.582 L801.406,162.918 C801.406,159.045 801.847,155.172 802.734,151.297 L802.402,150.301 L801.738,150.301 C801.295,150.301 800.851,152.127 800.41,155.78 L799.58,155.78 L799.58,126.063 C799.58,100.94 799.855,81.848 800.41,68.788 C802.623,67.903 804.892,67.46 807.217,67.46 L807.217,67.128 L805.059,67.128 L800.411,67.46 L800.411,63.974 C800.52,61.982 800.852,60.986 801.407,60.986 L801.075,59.492 C800.188,60.267 799.358,60.654 798.585,60.654 L794.269,60.654 L794.269,59.824 L793.937,54.844 L794.269,54.844 L793.937,53.682 L793.605,53.682 C792.83,53.682 792.443,55.176 792.443,58.164 L792.443,59.824 L791.779,60.654 L778.83,60.654 L773.019,60.986 L766.876,60.654 L754.92,60.654 L753.924,59.824 C753.037,60.599 751.322,60.986 748.778,60.986 L748.446,60.654 L748.114,60.654 L747.782,60.986 L747.45,60.986 L744.462,60.322 L742.304,60.654 L741.64,60.654 L739.316,60.322 C738.652,61.761 738.32,65.136 738.32,70.449 L738.32,79.414 L737.988,79.746 L738.32,80.078 L738.32,80.41 L737.988,81.406 L737.988,82.07 L738.32,82.07 L737.988,87.881 L737.988,99.17 C737.988,111.014 737.765,120.42 737.324,127.393 L737.656,134.864 L737.324,162.589 L737.988,203.097 L737.988,240.285 L735.498,240.285 L727.695,239.953 L726.035,240.285 L714.414,239.953 L689.844,239.953 L683.369,239.621 L683.037,239.953 L682.705,239.953 L677.891,239.289 L677.891,238.625 L679.219,237.961 L678.887,236.301 L679.551,157.444 L679.883,156.448 L679.551,154.788 L679.551,154.124 L679.883,152.298 L679.551,149.974 L679.883,147.982 L679.883,147.152 L679.551,147.152 L679.883,138.021 L679.883,90.209 L680.215,89.877 L679.883,89.545 L679.883,89.213 L680.215,85.561 L679.883,85.063 L679.883,84.731 L680.215,83.403 L679.883,83.403 L680.215,83.071 L680.215,75.932 L679.883,75.6 L680.215,75.268 L680.215,74.936 L679.883,74.604 L680.215,72.944 L680.215,72.446 L679.883,71.118 L680.547,68.794 L680.215,68.462 L680.547,65.972 L680.547,61.656 L680.215,59.83 L680.547,59.498 L680.215,59.498 L680.547,59.166 L680.547,52.691 L680.879,30.279 L680.547,26.793 L680.879,15.504 L680.879,1.227 L682.703,0.889 L682.703,0.889 Z" id="Shape" sketch:type="MSShapeGroup"></path>
            <path d="M1008.606,0.557 L1008.606,1.221 C1008.606,1.664 1008.163,1.885 1007.278,1.885 L1007.278,2.217 L1007.61,2.217 L1010.266,1.885 L1013.088,2.549 L1013.42,2.217 L1015.744,2.549 L1034.67,2.549 C1035.555,2.549 1039.539,4.043 1046.623,7.031 C1051.381,7.031 1055.975,12.177 1060.402,22.47 C1061.066,25.349 1061.398,28.115 1061.398,30.771 L1060.734,31.767 L1061.398,33.759 L1061.398,37.245 L1061.066,37.577 L1061.398,37.909 L1061.398,38.241 L1060.07,68.456 L1060.402,69.452 L1060.07,70.448 C1060.511,74.1 1060.734,79.138 1060.734,85.555 L1060.734,90.037 L1060.07,91.365 L1046.291,91.697 L1022.385,91.697 L1022.053,91.365 L1021.721,91.697 L1009.602,91.365 L1006.614,91.365 C1004.51,91.365 1002.573,90.812 1000.803,89.705 C999.584,89.705 998.977,89.43 998.977,88.875 L998.977,86.883 L999.309,86.551 L998.977,86.219 L999.973,72.772 L999.641,70.116 L999.641,68.788 L1001.467,68.456 L1001.467,67.626 C1000.248,67.517 999.641,67.185 999.641,66.63 L999.641,65.302 C999.641,64.861 1000.139,64.638 1001.135,64.638 L1001.135,64.306 L1000.471,63.31 L1000.471,62.646 L1001.135,62.646 L1001.135,61.484 L1000.471,60.82 L997.649,60.82 L994.495,60.156 L992.503,60.82 L992.503,60.488 L992.171,60.82 L991.507,60.82 L987.357,59.824 L987.357,60.156 C987.357,60.82 986.914,61.152 986.029,61.152 L985.697,60.82 L985.365,60.82 L985.033,61.152 L984.7,61.152 L983.206,60.82 L981.214,61.152 L980.882,60.82 L980.55,60.82 L980.218,61.152 L979.886,61.152 L976.732,60.82 L976.4,60.82 C976.4,60.156 976.177,59.824 975.736,59.824 L975.404,59.824 L976.068,60.82 L976.068,61.152 L974.408,61.152 L974.408,60.156 L972.25,60.156 C971.807,60.156 971.586,60.488 971.586,61.152 L970.59,61.152 L970.59,60.156 L956.147,60.488 L942.2,60.488 L941.536,59.824 L941.536,58.828 L942.532,58.828 L942.532,58.496 L941.536,58.496 L938.382,58.828 L938.382,59.16 L939.71,60.82 L939.71,61.484 C939.71,64.252 939.487,65.634 939.046,65.634 L939.378,65.966 L939.378,82.734 L939.046,83.066 L939.378,83.398 L939.046,90.371 L939.046,100.664 L938.714,115.605 L939.046,116.767 L938.714,118.427 L939.046,120.419 L938.714,124.237 L938.714,131.708 L938.382,135.526 L938.714,135.858 L938.382,140.008 L938.382,149.305 L938.714,152.293 L938.05,154.119 L938.382,154.451 L938.05,160.262 L938.05,181.512 L938.382,181.844 L938.382,182.176 C939.599,181.955 940.484,181.512 941.038,180.848 L943.196,180.848 L943.528,184.168 L943.86,184.168 C943.86,181.955 944.301,180.848 945.188,180.848 L966.106,181.18 L966.438,181.512 L966.77,181.512 L967.102,181.18 L977.395,181.512 L994.993,181.512 C995.325,181.512 995.657,182.067 995.989,183.172 L996.321,182.84 L996.653,182.84 L997.649,183.172 L997.649,182.84 L997.981,181.512 C998.977,181.512 1000.028,181.955 1001.135,182.84 L1001.799,180.848 L1001.799,180.516 C1000.36,180.516 999.641,179.686 999.641,178.026 L999.641,175.37 L1002.131,175.37 L1003.791,175.038 L1003.791,174.706 L1002.131,174.208 L1000.471,174.208 L999.641,173.544 L999.641,160.263 C999.641,154.286 1000.471,151.298 1002.131,151.298 L1008.274,151.63 L1059.075,152.294 L1059.407,152.626 L1059.075,164.745 L1059.075,183.837 L1058.577,188.651 L1059.075,193.133 L1059.075,206.912 C1059.075,218.976 1056.639,227.166 1051.77,231.482 C1046.346,237.682 1039.872,240.779 1032.346,240.779 L1030.188,240.779 L1029.856,240.447 L1029.524,240.779 L1027.864,240.779 L1023.382,241.111 L1018.568,240.447 L985.697,240.447 L976.732,240.115 L976.4,240.447 L976.068,240.447 L972.914,240.115 L967.103,240.115 L965.775,240.447 C964.556,240.004 961.015,239.783 955.15,239.783 L926.761,239.783 C925.542,239.783 924.935,239.562 924.935,239.119 L924.603,239.451 L917.132,239.451 L915.472,239.119 L913.314,239.451 L905.511,239.451 C902.523,239.451 899.312,238.4 895.882,236.297 C894.995,235.301 893.28,234.416 890.736,233.641 C885.201,228.44 882.435,224.401 882.435,221.522 C880.884,218.977 880.111,216.043 880.111,212.723 L880.775,211.561 L880.443,208.573 L880.775,200.604 L880.443,199.608 L880.775,196.62 L880.775,188.651 L881.107,184.833 L880.775,184.501 L881.107,178.69 L881.107,166.405 L881.439,159.598 L882.435,159.266 L881.771,149.637 L882.103,149.305 L882.103,148.973 L881.439,145.819 L881.771,144.823 L881.107,134.198 L881.439,120.751 L881.107,114.94 L881.439,114.608 L881.107,110.624 L881.107,52.353 L881.439,50.195 L881.107,49.863 L881.107,49.531 L881.439,43.388 L881.107,32.431 L881.771,31.435 L881.439,29.609 L881.439,28.945 C882.324,22.416 883.929,17.381 886.253,13.838 C889.683,8.637 893.667,6.035 898.206,6.035 L898.538,6.035 L898.538,5.039 L897.874,5.039 L897.874,4.375 C900.53,2.715 904.071,1.885 908.499,1.885 L913.978,1.885 L916.136,2.217 L916.468,1.885 L916.8,1.885 L931.907,3.545 L931.907,2.881 L931.243,2.881 L931.243,1.885 L958.636,1.885 L960.628,2.217 L960.96,1.885 L961.292,1.885 L978.06,2.217 L987.689,2.217 L992.171,1.885 L999.974,2.549 L1002.132,2.217 L1006.282,2.217 L1006.282,1.885 L1004.788,1.553 L1004.788,0.889 L1008.606,0.557 L1008.606,0.557 Z" id="Shape" sketch:type="MSShapeGroup"></path>
            <path d="M1096.401,0.889 L1096.401,1.553 L1096.733,1.221 L1098.393,1.553 L1103.539,1.221 L1163.139,1.553 L1185.219,1.553 L1191.03,1.885 L1191.03,1.553 L1191.362,1.885 L1195.512,1.553 L1203.481,1.885 L1209.624,1.553 L1209.624,2.549 L1209.292,2.549 C1204.532,3.213 1202.153,3.934 1202.153,4.707 L1207.299,5.371 C1234.746,3.047 1252.067,1.885 1259.262,1.885 L1259.926,4.375 L1259.594,13.008 L1259.594,27.451 L1259.262,32.93 L1259.594,33.262 L1259.594,33.594 L1259.262,42.559 L1259.262,60.157 C1259.262,60.712 1258.707,61.044 1257.602,61.153 L1256.772,61.153 L1256.772,60.821 L1253.452,61.153 L1250.962,61.153 L1243.159,60.489 L1232.036,60.821 L1231.04,60.821 L1230.708,60.489 L1230.376,60.821 L1221.743,60.821 L1217.925,60.489 L1216.929,60.821 L1211.783,60.489 L1211.451,60.821 L1211.119,60.821 L1207.965,59.825 L1206.305,60.821 L1204.479,60.489 L1203.151,60.821 L1200.993,60.157 L1200.661,60.157 L1199.665,60.821 L1199.997,61.153 L1199.997,62.481 C1199.997,62.924 1199.333,63.145 1198.005,63.145 L1198.005,63.643 C1198.005,64.086 1198.669,64.307 1199.997,64.307 L1199.997,65.967 L1199.333,66.963 L1199.997,66.963 L1199.997,67.627 L1199.333,70.449 L1199.997,71.113 L1199.997,74.599 L1199.665,86.552 L1199.665,87.382 L1199.997,87.382 L1199.665,90.702 L1199.665,106.307 L1199.333,108.299 L1199.665,108.631 L1199.333,117.928 L1199.333,194.129 L1199.665,254.061 L1199.997,259.207 L1199.665,259.539 L1199.665,259.871 L1199.997,261.199 L1199.665,261.199 L1199.997,261.531 L1199.997,291.912 L1199.665,293.904 L1199.997,295.73 L1199.997,297.722 L1199.665,297.722 C1194.353,293.406 1184.612,283.777 1170.446,268.835 C1169.45,268.612 1161.757,261.142 1147.37,246.423 C1143.938,243.103 1142.224,241.054 1142.224,240.28 L1142.556,239.118 L1142.224,239.118 C1141.228,239.118 1140.507,237.624 1140.066,234.636 L1140.398,232.976 L1140.398,230.652 L1140.066,230.154 C1140.507,228.826 1140.896,228.162 1141.228,228.162 L1140.73,212.723 L1140.73,205.75 L1141.228,202.264 L1140.73,199.276 L1140.73,193.465 L1141.228,187.82 L1140.73,186.824 L1141.228,186.492 L1140.73,184.832 L1141.228,182.674 L1140.73,179.188 L1141.228,172.049 L1140.73,162.088 L1140.73,161.756 L1141.228,159.598 L1140.73,159.266 L1140.73,158.934 L1141.228,157.274 L1140.73,152.46 C1141.062,141.614 1141.56,135.638 1142.224,134.53 L1141.892,134.198 L1142.224,130.712 L1142.224,128.72 C1142.224,128.167 1141.726,127.89 1140.73,127.89 L1140.73,124.902 C1140.839,119.813 1141.117,117.265 1141.56,117.265 C1141.117,117.265 1140.73,114.609 1140.398,109.296 L1140.066,109.296 C1140.507,108.191 1140.73,106.142 1140.73,103.153 L1140.73,88.046 L1141.228,82.567 L1140.73,82.235 L1140.73,81.737 L1141.228,80.741 L1140.73,78.085 L1141.228,75.263 L1140.73,74.931 L1140.73,74.6 L1141.228,74.268 L1141.228,73.936 L1140.73,72.94 L1141.892,63.975 L1141.56,62.149 L1143.552,61.817 L1143.552,61.153 C1142.665,61.153 1142.224,60.932 1142.224,60.489 L1141.56,59.825 L1140.73,59.825 L1139.07,61.153 L1135.252,60.821 L1134.92,61.153 L1134.588,61.153 L1128.777,60.489 L1125.623,60.489 L1114.002,60.821 L1102.547,60.489 L1100.555,60.489 L1098.397,60.157 L1098.065,60.489 L1095.741,60.157 L1088.768,60.157 L1083.622,59.825 L1083.622,59.493 L1082.958,33.927 L1082.958,4.044 C1082.958,2.275 1083.29,1.333 1083.954,1.222 L1092.919,1.222 L1096.401,0.889 L1096.401,0.889 Z" id="Shape" sketch:type="MSShapeGroup"></path>
            <path d="M1290.084,0.391 L1296.393,1.055 L1296.725,0.723 L1299.215,1.055 L1313.326,1.387 L1313.658,1.055 L1313.99,1.055 L1316.148,1.387 L1319.302,1.387 L1320.63,1.719 L1321.958,1.055 L1324.116,1.719 L1324.116,1.387 L1324.448,1.719 L1333.745,1.719 L1334.077,1.387 L1334.409,1.719 L1340.718,1.719 C1340.718,11.239 1340.163,20.977 1339.058,30.938 L1339.39,32.266 L1338.726,34.258 L1339.39,34.258 L1339.39,33.594 L1339.722,33.926 L1340.054,33.926 L1339.722,41.563 L1339.722,45.049 L1339.39,45.381 L1339.722,45.713 L1339.722,48.867 C1339.722,50.527 1339.39,51.357 1338.726,51.357 L1339.39,75.927 L1339.39,79.081 L1340.054,81.737 L1339.058,117.43 L1339.39,117.762 L1339.39,118.094 L1339.058,121.912 L1339.058,123.406 L1339.39,125.066 L1339.058,127.224 L1339.058,133.699 L1338.726,135.857 C1339.167,136.853 1339.39,138.347 1339.39,140.339 L1339.39,147.976 L1339.722,159.099 L1339.39,171.218 L1339.39,184.665 C1339.39,189.313 1339.167,191.638 1338.726,191.638 L1339.39,193.63 L1339.39,211.062 L1339.722,217.537 L1339.39,217.869 L1339.722,221.355 L1339.722,243.933 L1339.39,247.751 C1339.831,249.521 1340.054,251.956 1340.054,255.056 L1339.722,259.87 L1340.054,260.202 L1340.054,260.534 C1339.722,261.419 1339.39,261.862 1339.058,261.862 C1339.39,261.862 1339.722,264.739 1340.054,270.495 L1339.722,270.495 L1340.054,270.993 L1340.054,276.804 L1339.722,278.464 L1340.054,280.622 L1340.054,282.78 L1339.722,286.1 L1340.054,289.586 L1339.722,289.918 L1339.722,290.25 L1340.054,291.744 L1340.054,293.072 L1339.722,295.23 L1340.054,296.558 L1339.39,300.708 C1338.171,300.708 1331.697,294.343 1319.966,281.616 C1304.028,265.567 1296.06,257.046 1296.06,256.05 L1290.581,248.745 L1290.581,249.077 L1292.573,251.899 L1292.573,252.563 L1292.241,252.563 C1285.268,246.254 1281.782,242.213 1281.782,240.444 L1281.118,239.116 L1281.118,236.626 L1281.45,236.626 L1283.276,237.954 L1283.276,237.622 C1281.837,236.294 1281.118,235.023 1281.118,233.804 L1281.118,229.322 L1280.786,223.843 L1281.118,222.847 L1280.786,221.353 L1281.118,210.728 L1281.118,207.906 L1280.786,198.443 L1281.118,188.482 L1281.118,182.173 L1280.786,174.702 L1281.118,174.702 L1280.786,174.204 L1281.118,171.88 L1280.786,168.394 L1281.118,166.734 L1280.786,161.089 L1280.786,154.946 L1280.454,146.977 L1280.786,144.155 L1280.454,143.159 L1280.786,143.159 L1280.454,141.997 L1282.612,130.21 L1281.118,97.007 L1281.45,97.007 L1281.118,96.675 L1281.118,92.193 L1281.45,91.197 L1281.118,89.371 L1281.118,53.35 L1281.45,45.049 L1281.118,43.721 L1282.612,30.938 L1282.612,30.108 L1282.114,30.108 L1282.612,26.788 L1282.612,18.321 L1282.944,15.997 L1283.608,15.997 C1283.608,16.661 1283.829,16.993 1284.272,16.993 C1283.497,14.228 1282.944,12.843 1282.612,12.843 L1282.944,11.183 L1282.944,3.214 L1282.612,0.724 L1283.608,0.724 C1284.049,0.724 1284.272,1.056 1284.272,1.72 L1284.936,1.72 L1284.936,1.388 L1284.604,1.056 L1284.604,0.724 L1287.426,0.724 L1290.084,0.391 L1290.084,0.391 Z" id="Shape" sketch:type="MSShapeGroup"></path>
            <path d="M1566.435,0.889 L1583.037,0.889 L1591.006,1.221 L1593.33,0.889 L1600.137,1.553 L1606.944,1.221 L1610.762,1.553 L1620.225,1.221 L1625.704,1.221 L1627.032,1.553 L1627.53,1.221 L1633.175,1.553 L1667.042,1.553 L1674.181,1.885 L1676.173,1.553 L1676.173,1.885 L1676.505,1.553 L1685.138,1.553 L1692.277,1.885 L1692.609,1.553 L1692.941,1.553 L1695.597,1.885 L1711.036,1.553 L1711.036,1.885 L1711.368,2.217 L1711.368,2.549 L1713.028,1.885 L1719.171,3.545 L1720.997,3.545 L1722.989,3.213 C1730.403,3.656 1735.993,6.865 1739.757,12.842 L1743.077,32.598 L1742.745,44.883 L1742.745,48.701 L1743.077,60.986 L1742.745,74.267 L1742.745,90.537 L1742.413,96.348 L1742.745,96.348 L1742.413,97.344 L1742.081,133.867 L1741.749,133.867 L1742.081,134.863 L1741.085,177.197 L1741.417,177.529 L1741.417,177.861 L1741.085,181.015 C1740.862,197.176 1740.642,205.253 1740.421,205.253 L1739.757,205.253 L1739.757,209.569 L1739.259,211.063 C1740.032,212.059 1740.421,214.329 1740.421,217.87 L1740.421,221.19 L1740.089,226.004 L1740.421,226.336 L1740.421,226.668 L1740.089,230.818 L1740.421,239.617 L1740.089,240.613 C1740.53,243.822 1740.753,249.301 1740.753,257.049 L1740.753,261.863 L1741.085,268.006 L1740.753,272.82 L1740.753,273.152 L1741.085,276.14 L1740.753,277.8 L1741.085,278.132 L1741.085,278.464 L1739.757,283.278 L1739.757,300.71 L1739.259,300.71 C1731.4,293.183 1727.195,288.534 1726.642,286.765 C1703.732,263.523 1692.277,250.906 1692.277,248.913 L1683.976,241.11 C1683.865,236.462 1683.644,228.936 1683.312,218.532 L1683.81,217.536 L1683.312,217.204 L1683.312,216.872 L1683.81,214.382 L1683.312,211.726 L1683.81,210.73 L1683.312,207.576 L1683.312,205.252 L1683.81,203.758 L1683.312,201.434 L1683.312,195.291 C1683.312,187.434 1684.251,177.418 1686.134,165.242 L1685.138,163.582 L1685.138,162.918 C1685.138,159.045 1685.579,155.172 1686.466,151.297 L1686.134,150.301 L1685.47,150.301 C1685.027,150.301 1684.583,152.127 1684.142,155.78 L1683.312,155.78 L1683.312,126.063 C1683.312,100.94 1683.587,81.848 1684.142,68.788 C1686.355,67.903 1688.624,67.46 1690.949,67.46 L1690.949,67.128 L1688.791,67.128 L1684.143,67.46 L1684.143,63.974 C1684.252,61.982 1684.584,60.986 1685.139,60.986 L1684.807,59.492 C1683.92,60.267 1683.09,60.654 1682.317,60.654 L1678.001,60.654 L1678.001,59.824 L1677.669,54.844 L1678.001,54.844 L1677.669,53.682 L1677.337,53.682 C1676.562,53.682 1676.175,55.176 1676.175,58.164 L1676.175,59.824 L1675.511,60.654 L1662.562,60.654 L1656.751,60.986 L1650.608,60.654 L1638.655,60.654 L1637.659,59.824 C1636.772,60.599 1635.057,60.986 1632.513,60.986 L1632.181,60.654 L1631.849,60.654 L1631.517,60.986 L1631.185,60.986 L1628.197,60.322 L1626.039,60.654 L1625.375,60.654 L1623.051,60.322 C1622.387,61.761 1622.055,65.136 1622.055,70.449 L1622.055,79.414 L1621.723,79.746 L1622.055,80.078 L1622.055,80.41 L1621.723,81.406 L1621.723,82.07 L1622.055,82.07 L1621.723,87.881 L1621.723,99.17 C1621.723,111.014 1621.5,120.42 1621.059,127.393 L1621.391,134.864 L1621.059,162.589 L1621.723,203.097 L1621.723,240.285 L1619.233,240.285 L1611.43,239.953 L1609.77,240.285 L1598.149,239.953 L1573.579,239.953 L1567.104,239.621 L1566.772,239.953 L1566.44,239.953 L1561.626,239.289 L1561.626,238.625 L1562.954,237.961 L1562.622,236.301 L1563.286,157.444 L1563.618,156.448 L1563.286,154.788 L1563.286,154.124 L1563.618,152.298 L1563.286,149.974 L1563.618,147.982 L1563.618,147.152 L1563.286,147.152 L1563.618,138.021 L1563.618,90.209 L1563.95,89.877 L1563.618,89.545 L1563.618,89.213 L1563.95,85.561 L1563.618,85.063 L1563.618,84.731 L1563.95,83.403 L1563.618,83.403 L1563.95,83.071 L1563.95,75.932 L1563.618,75.6 L1563.95,75.268 L1563.95,74.936 L1563.618,74.604 L1563.95,72.944 L1563.95,72.446 L1563.618,71.118 L1564.282,68.794 L1563.95,68.462 L1564.282,65.972 L1564.282,61.656 L1563.95,59.83 L1564.282,59.498 L1563.95,59.498 L1564.282,59.166 L1564.282,52.691 L1564.614,30.279 L1564.282,26.793 L1564.614,15.504 L1564.614,1.227 L1566.435,0.889 L1566.435,0.889 Z" id="Shape" sketch:type="MSShapeGroup"></path>
        </g>
        <path d="M1446.924,389 L1108.924,0 L1473.924,353 L1446.924,389 L1446.924,389 Z M1528.924,569 L1173.924,154 L1456.924,433 L1482.924,402 C1482.924,402 1524.088,441.845 1528.56,459.602 C1574.643,424.761 1558.691,317.273 1446.924,279 C1430.19,262.343 1325.87,163.977 1325.924,164 C1339.177,169.751 1417.873,219.163 1434.924,227 C1619.372,262.034 1667.71,434.618 1528.924,569 L1528.924,569 Z M1372.924,478 C1386.359,489.77 1420.924,494 1420.924,494 L1465.924,547 C1459.503,551.702 1388.796,552.241 1346.924,508 C1313.385,472.563 1308.924,422 1308.924,422 L1238.924,300 L1349.924,433 C1349.924,433 1349.446,457.432 1372.924,478 L1372.924,478 Z" id="Fireball" fill="#4990E2" sketch:type="MSShapeGroup"></path>
    </g>
</svg>