<?xml version="1.0" encoding="UTF-8" standalone="no"?>
<svg width="200px" height="247px" viewBox="0 0 200 247" version="1.1" xmlns="http://www.w3.org/2000/svg">
    <title>Star Citizen</title>
    <g id="Page-1" stroke="none" stroke-width="1" fill="none" fill-rule="evenodd">
        <g id="Star-Citizen-Logo">
            <path d="M101,214 C101,214 101.269,182.541 103.27,163.34 C104.133,155.059 105.319,147.512 106.944,142.871 C112.261,127.692 117.321,124.559 138.381,121.566 C149.402,120.002 172,118 172,118 C172,118 149.402,116.174 138.38,114.746 C117.32,112.017 112.261,109.158 106.943,95.309 C101.551,81.259 101,38 101,38 C101,38 100.45,81.259 95.056,95.309 C89.739,109.157 84.679,112.017 63.62,114.746 C52.598,116.174 30,118 30,118 C30,118 52.598,120.001 63.62,121.567 C84.679,124.559 89.739,127.692 95.056,142.871 C96.681,147.512 97.867,155.059 98.73,163.34 C100.731,182.541 101,214 101,214" id="star" fill="white"></path>
            <path d="M101.5,169 C128.28581,169 150,147.28581 150,120.5 C150,93.7141896 128.28581,72 101.5,72 C74.7141896,72 53,93.7141896 53,120.5 C53,147.28581 74.7141896,169 101.5,169 Z M101.5,164 C125.524387,164 145,144.524387 145,120.5 C145,96.4756134 125.524387,77 101.5,77 C77.4756134,77 58,96.4756134 58,120.5 C58,144.524387 77.4756134,164 101.5,164 Z" id="Ring-3" fill="#FFFFFF"></path>
            <path d="M101,187 C138.003078,187 168,157.003078 168,120 C168,82.9969218 138.003078,53 101,53 C63.9969218,53 34,82.9969218 34,120 C34,157.003078 63.9969218,187 101,187 Z M101,185 C136.898509,185 166,155.898509 166,120 C166,84.1014913 136.898509,55 101,55 C65.1014913,55 36,84.1014913 36,120 C36,155.898509 65.1014913,185 101,185 Z" id="Ring-2" fill="#FFFFFF"></path>
            <path d="M101,193 C141.316787,193 174,160.316787 174,120 C174,79.6832133 141.316787,47 101,47 C60.6832133,47 28,79.6832133 28,120 C28,160.316787 60.6832133,193 101,193 Z M101,192 C140.764502,192 173,159.764502 173,120 C173,80.235498 140.764502,48 101,48 C61.235498,48 29,80.235498 29,120 C29,159.764502 61.235498,192 101,192 Z" id="Ring-1" fill="#FFFFFF"></path>
            <g id="Branch-Left" transform="translate(21.000000, 48.000000)" fill="#FFFFFF">
                <path d="M75.7950681,150.121267 C34.7433475,144.301406 2.52568963,116.560718 2.52568963,71.1745627 C2.52568963,33.7590859 27.5036874,9.15995493 49.6917245,0 C27.0833892,8.7531486 0,33.0953493 0,71.1745627 C0,116.22593 28.8484464,143.835234 69.8874898,152.713928 C66.5085266,153.447736 63.3938345,154.241885 60.7111425,155.114864 C60.7111425,155.114864 60.0392506,155.456464 60.6477565,157.243298 C61.2572376,159.032078 62.1241635,158.999961 62.1241635,158.999961 C66.9629557,157.346459 73.3152114,155.968378 80,154.722656 C79.9707449,153.44871 79.9405146,152.117343 79.908334,150.742182 C78.5508978,150.5271 77.1866353,150.316885 75.7950681,150.121267" id="Branch"></path>
            </g>
            <g id="Branch-Right" transform="translate(141.000000, 127.500000) scale(-1, 1) translate(-141.000000, -127.500000) translate(101.000000, 48.000000)" fill="#FFFFFF">
                <path d="M75.7950681,150.121267 C34.7433475,144.301406 2.52568963,116.560718 2.52568963,71.1745627 C2.52568963,33.7590859 27.5036874,9.15995493 49.6917245,0 C27.0833892,8.7531486 0,33.0953493 0,71.1745627 C0,116.22593 28.8484464,143.835234 69.8874898,152.713928 C66.5085266,153.447736 63.3938345,154.241885 60.7111425,155.114864 C60.7111425,155.114864 60.0392506,155.456464 60.6477565,157.243298 C61.2572376,159.032078 62.1241635,158.999961 62.1241635,158.999961 C66.9629557,157.346459 73.3152114,155.968378 80,154.722656 C79.9707449,153.44871 79.9405146,152.117343 79.908334,150.742182 C78.5508978,150.5271 77.1866353,150.316885 75.7950681,150.121267" id="Branch"></path>
            </g>
            <g id="Leaves-Left" transform="translate(5.000000, 44.000000)" fill="#FFFFFF">
                <path d="M42.7371693,9.92395437 C44.143639,6.20173819 44.3421041,2.5460076 43.4976148,0 C41.1555239,1.42357414 38.8721624,4.34894079 37.4646802,8.0750679 C36.0622608,11.7963064 35.3939599,16.901032 36.7072725,18 C38.4428297,17.9696904 41.3367752,13.6510592 42.7371693,9.92395437" id="Leaf-18"></path>
                <path d="M29.3200426,26 C31.1661967,25.7369019 33.5710413,21.0011367 34.4860448,17.0693913 C35.4042777,13.1415728 35.0501175,9.44445593 33.7583479,7 C31.4869862,8.75431435 29.5105786,11.999845 28.5901927,15.9286452 C27.6751892,19.8613723 27.7548483,25.0771933 29.3200426,26" id="Leaf-17"></path>
                <path d="M23.2701634,36 C25.0166471,35.491285 26.63778,30.3372517 26.9422032,26.1976084 C27.242413,22.0599919 26.3533707,18.3267126 24.7343445,16 C22.7898278,18.0865424 21.3625145,21.664775 21.0612514,25.8013782 C20.7547214,29.9420349 21.6153228,35.2612485 23.2701634,36" id="Leaf-16"></path>
                <path d="M18.7214414,45 C20.3809862,44.2618224 21.2399833,38.9371145 20.941474,34.8019157 C20.6419209,30.6687227 19.2172174,27.089163 17.2758631,25 C15.6549366,27.3288702 14.7583649,31.0608796 15.0568742,35.1990873 C15.3543398,39.3352891 16.9783975,44.4854822 18.7214414,45" id="Leaf-15"></path>
                <path d="M14.6750938,54 C16.2405381,53.0237975 16.3282114,47.5362025 15.4113385,43.3994937 C14.4965783,39.2607595 12.519175,35.8450633 10.2460063,34 C8.95203242,36.5701266 8.59500127,40.4658228 9.51187416,44.6065823 C10.4245218,48.7392405 12.8297287,53.7255696 14.6750938,54" id="Leaf-14"></path>
                <path d="M12.2905878,64 C13.6047684,62.840073 12.9418373,57.4518654 11.5351774,53.5200104 C10.1314378,49.5921211 7.85060449,46.5059223 5.50454885,45 C4.65957943,47.6896426 4.85329938,51.5481346 6.25703889,55.4780068 C7.65883148,59.4098617 10.5500287,63.9722411 12.2905878,64" id="Leaf-13"></path>
                <path d="M12.5809348,75.9918527 C13.7403193,74.6421671 12.3279605,69.3630672 10.3744905,65.6432744 C8.42395074,61.9224928 5.70179034,59.1667612 3.14176794,58 C2.6631678,60.8031931 3.39571904,64.6248303 5.34918901,68.3485783 C7.29972877,72.0683711 10.8355094,76.2083957 12.5809348,75.9918527" id="Leaf-12"></path>
                <path d="M12.7631692,85.9583042 C13.7239347,84.4214925 11.6081348,79.2430615 9.17785,75.7353845 C6.74468006,72.2277074 3.68927259,69.817753 1.00413011,69 C0.918536385,71.9225607 2.1649349,75.7132286 4.59521966,79.224934 C7.0283896,82.7285827 11.0734144,86.4356625 12.7631692,85.9583042" id="Leaf-11"></path>
                <path d="M14.870977,95.8959458 C15.6613255,94.2529889 12.6863153,89.4955057 9.61353001,86.413484 C6.53768928,83.3324472 2.95871434,81.4136942 0,81 C0.322861427,83.8741896 2.18058775,87.4024101 5.25846546,90.4844318 C8.33328769,93.5674385 13.1425989,96.6051358 14.870977,95.8959458" id="Leaf-10"></path>
                <path d="M6.59909745,100.70799 C10.1042981,103.358843 15.3327203,105.729835 16.9434917,104.790441 C17.4996637,103.052561 13.851621,98.7264547 10.3443942,96.078537 C6.84020663,93.4306192 3.00272104,92.0048927 0,92 C0.738523494,94.8093761 3.09288371,98.0630074 6.59909745,100.70799" id="Leaf-9"></path>
                <path d="M20.9850549,113.619268 C21.2866484,111.799554 16.9682385,107.954008 13.0424113,105.778007 C9.11658412,103.601023 5.03433726,102.692148 2,103.091621 C3.15832349,105.815304 6.01374935,108.757863 9.94162124,110.934846 C13.8684708,113.110848 19.4954897,114.781373 20.9850549,113.619268" id="Leaf-8"></path>
                <path d="M24.9998407,121.340933 C25.0317018,119.483605 20.2794123,116.238652 16.1444325,114.599086 C12.0044745,112.96245 7.89936456,112.610905 5,113.412622 C6.51738722,115.963275 9.71843704,118.510021 13.8573994,120.148611 C17.9933749,121.792082 23.7094641,122.69731 24.9998407,121.340933" id="Leaf-7"></path>
                <path d="M31,129.750151 C30.7735023,127.728403 25.587792,124.911107 21.243783,123.751731 C16.8997739,122.590233 12.7644593,122.820411 10,124.127229 C11.8713263,126.674038 15.4181424,128.96203 19.7631405,130.125649 C24.1061605,131.287147 29.9130087,131.415496 31,129.750151" id="Leaf-6"></path>
                <path d="M38,136.737479 C37.500546,134.725023 31.8824386,132.660939 27.3282985,132.145724 C22.7751592,131.633737 18.6243858,132.502825 16,134.250682 C18.2260237,136.550324 22.122566,138.326147 26.6727025,138.843512 C31.2248408,139.356576 37.1242038,138.596123 38,136.737479" id="Leaf-5"></path>
                <path d="M33.8910501,140.015435 C29.3388159,140.16485 25.3623896,141.478371 23,143.3678 C25.4895801,145.088901 29.5567158,146.137638 34.1099359,145.985387 C38.6572402,145.827461 44.3758795,144.381547 45,142.628294 C44.2496751,140.924215 38.4383543,139.85751 33.8910501,140.015435" id="Leaf-4"></path>
                <path d="M53,147.592393 C51.9956328,145.922685 46.0031066,145.624839 41.4507676,146.424682 C36.8974382,147.225511 33.0919364,149.155587 31,151.452545 C33.7585431,152.907253 37.9978839,153.424044 42.5472514,152.624201 C47.0985998,151.827317 52.6285624,149.506689 53,147.592393" id="Leaf-3"></path>
                <path d="M61,151.965242 C59.7266685,150.357587 53.5377089,150.928279 48.9855996,152.43048 C44.4375519,153.935783 40.8155636,156.523539 39,159.241562 C42.0340626,160.355031 46.4622911,160.278525 51.0083079,158.772189 C55.5614327,157.268953 60.8964276,154.024695 61,151.965242" id="Leaf-2"></path>
                <path d="M70.995134,155.55426 C69.501718,154.162085 63.3950579,155.584612 59.0498368,157.692098 C54.7056308,159.803631 51.4406236,162.844966 50,165.757809 C53.1939406,166.420509 57.6051523,165.728468 61.9493582,163.616936 C66.2895031,161.504391 71.1758464,157.581817 70.995134,155.55426" id="Leaf-1"></path>
            </g>
            <g id="Leaves-Right" transform="translate(161.500000, 127.000000) scale(-1, 1) translate(-161.500000, -127.000000) translate(126.000000, 44.000000)" fill="#FFFFFF">
                <path d="M42.7371693,9.92395437 C44.143639,6.20173819 44.3421041,2.5460076 43.4976148,0 C41.1555239,1.42357414 38.8721624,4.34894079 37.4646802,8.0750679 C36.0622608,11.7963064 35.3939599,16.901032 36.7072725,18 C38.4428297,17.9696904 41.3367752,13.6510592 42.7371693,9.92395437" id="Leaf-18"></path>
                <path d="M29.3200426,26 C31.1661967,25.7369019 33.5710413,21.0011367 34.4860448,17.0693913 C35.4042777,13.1415728 35.0501175,9.44445593 33.7583479,7 C31.4869862,8.75431435 29.5105786,11.999845 28.5901927,15.9286452 C27.6751892,19.8613723 27.7548483,25.0771933 29.3200426,26" id="Leaf-17"></path>
                <path d="M23.2701634,36 C25.0166471,35.491285 26.63778,30.3372517 26.9422032,26.1976084 C27.242413,22.0599919 26.3533707,18.3267126 24.7343445,16 C22.7898278,18.0865424 21.3625145,21.664775 21.0612514,25.8013782 C20.7547214,29.9420349 21.6153228,35.2612485 23.2701634,36" id="Leaf-16"></path>
                <path d="M18.7214414,45 C20.3809862,44.2618224 21.2399833,38.9371145 20.941474,34.8019157 C20.6419209,30.6687227 19.2172174,27.089163 17.2758631,25 C15.6549366,27.3288702 14.7583649,31.0608796 15.0568742,35.1990873 C15.3543398,39.3352891 16.9783975,44.4854822 18.7214414,45" id="Leaf-15"></path>
                <path d="M14.6750938,54 C16.2405381,53.0237975 16.3282114,47.5362025 15.4113385,43.3994937 C14.4965783,39.2607595 12.519175,35.8450633 10.2460063,34 C8.95203242,36.5701266 8.59500127,40.4658228 9.51187416,44.6065823 C10.4245218,48.7392405 12.8297287,53.7255696 14.6750938,54" id="Leaf-14"></path>
                <path d="M12.2905878,64 C13.6047684,62.840073 12.9418373,57.4518654 11.5351774,53.5200104 C10.1314378,49.5921211 7.85060449,46.5059223 5.50454885,45 C4.65957943,47.6896426 4.85329938,51.5481346 6.25703889,55.4780068 C7.65883148,59.4098617 10.5500287,63.9722411 12.2905878,64" id="Leaf-13"></path>
                <path d="M12.5809348,75.9918527 C13.7403193,74.6421671 12.3279605,69.3630672 10.3744905,65.6432744 C8.42395074,61.9224928 5.70179034,59.1667612 3.14176794,58 C2.6631678,60.8031931 3.39571904,64.6248303 5.34918901,68.3485783 C7.29972877,72.0683711 10.8355094,76.2083957 12.5809348,75.9918527" id="Leaf-12"></path>
                <path d="M12.7631692,85.9583042 C13.7239347,84.4214925 11.6081348,79.2430615 9.17785,75.7353845 C6.74468006,72.2277074 3.68927259,69.817753 1.00413011,69 C0.918536385,71.9225607 2.1649349,75.7132286 4.59521966,79.224934 C7.0283896,82.7285827 11.0734144,86.4356625 12.7631692,85.9583042" id="Leaf-11"></path>
                <path d="M14.870977,95.8959458 C15.6613255,94.2529889 12.6863153,89.4955057 9.61353001,86.413484 C6.53768928,83.3324472 2.95871434,81.4136942 0,81 C0.322861427,83.8741896 2.18058775,87.4024101 5.25846546,90.4844318 C8.33328769,93.5674385 13.1425989,96.6051358 14.870977,95.8959458" id="Leaf-10"></path>
                <path d="M6.59909745,100.70799 C10.1042981,103.358843 15.3327203,105.729835 16.9434917,104.790441 C17.4996637,103.052561 13.851621,98.7264547 10.3443942,96.078537 C6.84020663,93.4306192 3.00272104,92.0048927 0,92 C0.738523494,94.8093761 3.09288371,98.0630074 6.59909745,100.70799" id="Leaf-9"></path>
                <path d="M20.9850549,113.619268 C21.2866484,111.799554 16.9682385,107.954008 13.0424113,105.778007 C9.11658412,103.601023 5.03433726,102.692148 2,103.091621 C3.15832349,105.815304 6.01374935,108.757863 9.94162124,110.934846 C13.8684708,113.110848 19.4954897,114.781373 20.9850549,113.619268" id="Leaf-8"></path>
                <path d="M24.9998407,121.340933 C25.0317018,119.483605 20.2794123,116.238652 16.1444325,114.599086 C12.0044745,112.96245 7.89936456,112.610905 5,113.412622 C6.51738722,115.963275 9.71843704,118.510021 13.8573994,120.148611 C17.9933749,121.792082 23.7094641,122.69731 24.9998407,121.340933" id="Leaf-7"></path>
                <path d="M31,129.750151 C30.7735023,127.728403 25.587792,124.911107 21.243783,123.751731 C16.8997739,122.590233 12.7644593,122.820411 10,124.127229 C11.8713263,126.674038 15.4181424,128.96203 19.7631405,130.125649 C24.1061605,131.287147 29.9130087,131.415496 31,129.750151" id="Leaf-6"></path>
                <path d="M38,136.737479 C37.500546,134.725023 31.8824386,132.660939 27.3282985,132.145724 C22.7751592,131.633737 18.6243858,132.502825 16,134.250682 C18.2260237,136.550324 22.122566,138.326147 26.6727025,138.843512 C31.2248408,139.356576 37.1242038,138.596123 38,136.737479" id="Leaf-5"></path>
                <path d="M33.8910501,140.015435 C29.3388159,140.16485 25.3623896,141.478371 23,143.3678 C25.4895801,145.088901 29.5567158,146.137638 34.1099359,145.985387 C38.6572402,145.827461 44.3758795,144.381547 45,142.628294 C44.2496751,140.924215 38.4383543,139.85751 33.8910501,140.015435" id="Leaf-4"></path>
                <path d="M53,147.592393 C51.9956328,145.922685 46.0031066,145.624839 41.4507676,146.424682 C36.8974382,147.225511 33.0919364,149.155587 31,151.452545 C33.7585431,152.907253 37.9978839,153.424044 42.5472514,152.624201 C47.0985998,151.827317 52.6285624,149.506689 53,147.592393" id="Leaf-3"></path>
                <path d="M61,151.965242 C59.7266685,150.357587 53.5377089,150.928279 48.9855996,152.43048 C44.4375519,153.935783 40.8155636,156.523539 39,159.241562 C42.0340626,160.355031 46.4622911,160.278525 51.0083079,158.772189 C55.5614327,157.268953 60.8964276,154.024695 61,151.965242" id="Leaf-2"></path>
                <path d="M70.995134,155.55426 C69.501718,154.162085 63.3950579,155.584612 59.0498368,157.692098 C54.7056308,159.803631 51.4406236,162.844966 50,165.757809 C53.1939406,166.420509 57.6051523,165.728468 61.9493582,163.616936 C66.2895031,161.504391 71.1758464,157.581817 70.995134,155.55426" id="Leaf-1"></path>
            </g>
            <g id="Citizen" transform="translate(25.000000, 216.000000)" fill="#FFFFFF">
                <path d="M13.842681,0 L3.0699867,0 C1.0233289,0 0,0.735577495 0,2.20768407 L0,21.8065897 C0,23.2691804 1.0233289,24 3.0699867,24 L13.842681,24 C15.9468754,24 17,23.2691804 17,21.8065897 L17,15.8724872 L11.8556147,15.8724872 L11.8556147,20.9159034 L5.166989,20.9159034 L5.166989,3.083145 L11.8556147,3.083145 L11.8556147,7.82110146 L17,7.82110146 L17,2.20768407 C17,0.735577495 15.9468754,0 13.842681,0" id="Fill-25"></path>
                <path d="M30,24 L35,24 L35,0 L30,0 L30,24 Z" id="Fill-27"></path>
                <path d="M48,3.17449744 L53.5106251,3.17449744 L53.5106251,24 L58.4883808,24 L58.4883808,3.17449744 L64,3.17449744 L64,0 L48,0 L48,3.17449744 Z" id="Fill-29"></path>
                <path d="M103.95825,2.07065541 L103.95825,0 L89.7301443,0 L89.7301443,3.23635066 L98.1374846,3.23635066 L89,22.0835018 L89,24 L104,24 L104,20.7646009 L94.8401838,20.7646009 L103.95825,2.07065541 Z" id="Fill-30"></path>
                <path d="M119.047831,13.2965386 L126.64066,13.2965386 L126.64066,10.1838944 L119.047831,10.1838944 L119.047831,3.17449744 L127.870491,3.17449744 L127.870491,0 L114,0 L114,24 L128,24 L128,20.8255026 L119.047831,20.8255026 L119.047831,13.2965386 Z" id="Fill-31"></path>
                <path d="M148.112213,13.0658208 C148.112213,13.4854877 148.218968,14.0621729 148.434474,14.7977795 L140.395915,0 L136,0 L136,24 L140.888785,24 L140.888785,10.6268041 C140.888785,10.2090404 140.781032,9.63140365 140.566524,8.89484536 L148.605082,24 L153,24 L153,0 L148.112213,0 L148.112213,13.0658208 Z" id="Fill-32"></path>
                <path d="M75,24 L80,24 L80,0 L75,0 L75,24 Z" id="Fill-33"></path>
            </g>
            <g id="STAR" transform="translate(52.000000, 7.000000)" fill="#FFFFFF">
                <path d="M3.93828575,42.9532806 C8.3569911,40.10392 12.8676713,37.832634 17.4390157,36.030057 C20.1963035,34.9432379 21.6033226,33.4726631 21.6297409,31.3654253 C21.6659438,28.6185948 21.7021466,25.8746938 21.7363926,23.1298163 C21.7530263,21.9687848 21.2667339,21.1368262 20.2814291,20.6280816 C15.7511798,18.2777009 11.2571334,15.7496013 6.75525934,12.6707686 C6.77189308,10.1797752 6.78852683,7.69171118 6.80613903,5.20267071 C9.58201748,4.99858697 12.3618097,4.82086811 15.1455158,4.67049062 C15.1181191,6.99938882 15.0907223,9.33121646 15.0633256,11.6640206 C17.3372563,11.3535008 19.6151009,11.0800872 21.8978377,10.8437797 C21.9330621,8.26880923 21.9663296,5.69872114 21.9995971,3.12570363 C22.0269939,1.05068951 20.6571561,0.00878829512 17.8900837,0 C13.2991702,0.00195295447 8.71021357,0.00585886341 4.12125695,0.00878829512 C1.3717968,-0.00781181788 -0.0019548234,1.39343301 2.08774304e-06,4.21252279 L2.08774304e-06,14.3688625 C2.08774304e-06,15.8462726 0.488251417,16.9409036 1.46181471,17.6049081 C5.94020585,20.6046461 10.4048986,22.9950624 14.9057942,25.1667478 C14.8783975,27.5962231 14.8500223,30.0286279 14.8216471,32.4600563 C12.0575101,33.5166046 9.31489911,34.7293893 6.60164181,36.1257518 C6.61925401,33.3144738 6.63784467,30.5051488 6.65545687,27.6958238 C4.42066435,28.5707474 2.20250557,29.5403893 2.08774304e-06,30.6154908 L2.08774304e-06,41.4963766 C0.00391591002,44.3115605 1.29841263,44.6865277 3.93828575,42.9532806" id="Fill-17"></path>
                <path d="M32.278424,31 C34.5904978,30.582617 36.9113964,30.2597899 39.2352364,30.025788 C39.2950484,21.339064 39.3548603,12.6532951 39.4136917,3.9713467 C41.9405001,3.93791786 44.4673085,3.91786055 46.9950974,3.91212989 C46.9970584,2.60744986 46.9990195,1.30372493 47,0 C39.6862771,0 32.3725543,0.00191021968 25.0578509,0.00382043935 L25,4.32951289 C27.5219058,4.23686724 30.0467531,4.16141356 32.5716005,4.10028653 C32.4735482,13.0620821 32.3764764,22.0267431 32.278424,31" id="Fill-19"></path>
                <path d="M57.4198242,7 C58.6038035,11.5983425 59.7968592,16.2546961 61,21 C58.669356,20.779558 56.3356865,20.6209945 54,20.5185083 C55.1527157,16.041989 56.292321,11.5451657 57.4198242,7 L57.4198242,7 Z M45,30.3023593 C47.2722008,30.2145518 49.5453668,30.2184544 51.8194981,30.3082131 C52.2760618,28.4115717 52.730695,26.5178571 53.1843629,24.6192644 C56.0521236,24.7490244 58.9189189,24.9948853 61.7779923,25.3587985 C62.2557915,27.3959319 62.734556,29.4486755 63.2133205,31.5199562 C65.4835907,31.9160655 67.7471042,32.4077874 70,33 C66.9391892,21.2220908 63.8938224,10.3925024 60.9092664,0 L53.8137066,0 C50.9449807,10.1144454 48.0057915,20.0366899 45,30.2243082 L45,30.3023593 Z" id="Fill-21"></path>
                <path d="M81.4667781,36.8257681 C81.334392,26.109384 81.2020059,15.4097197 81.0696197,4.72480811 C84.0132052,4.87922003 86.9547848,5.05920335 89.8903468,5.26672511 C89.9244463,9.59320947 89.9575428,13.9226444 89.9896364,18.2520793 C87.7200167,17.6934425 85.4403677,17.1957837 83.1547012,16.7522183 C83.1667363,17.881294 83.1807773,19.0113532 83.1938153,20.1404289 C85.8234852,26.5696692 88.4310907,33.6027881 90.9785207,41.4650104 C93.3454242,42.8212781 95.6872545,44.3270403 98,46 C95.5548684,37.2870368 93.0184705,29.547754 90.4349352,22.5441406 C92.7165901,23.2463706 94.1999164,23.6348592 94.9019641,23.5945351 C96.2087756,23.5138868 96.860677,22.5126681 96.8586711,20.5997306 C96.8516506,15.1254837 96.8446302,9.6463193 96.8366068,4.17207244 C96.8346009,1.38085566 95.4244881,-0.00590109256 92.6062683,0.00885163884 C86.4051818,0.00491757713 80.2020894,0.00196703085 74,0 C74.1514417,11.4274657 74.3038863,22.8706677 74.4573339,34.3286224 C76.8071876,35.0465887 79.1450063,35.8786427 81.4667781,36.8257681" id="Fill-23"></path>
            </g>
        </g>
    </g>
</svg>
